<?xml version="1.0" encoding="UTF-8"?>
<!DOCTYPE svg PUBLIC "-//W3C//DTD SVG 1.0//EN" "http://www.w3.org/TR/2001/REC-SVG-20010904/DTD/svg10.dtd">
<!-- Creator: CorelDRAW 2021.5 -->
<svg xmlns="http://www.w3.org/2000/svg" xml:space="preserve" width="20.6989mm" height="24.3502mm" version="1.0" style="shape-rendering:geometricPrecision; text-rendering:geometricPrecision; image-rendering:optimizeQuality; fill-rule:evenodd; clip-rule:evenodd"
viewBox="0 0 309.39 363.97"
 xmlns:xlink="http://www.w3.org/1999/xlink"
 xmlns:xodm="http://www.corel.com/coreldraw/odm/2003">
 <defs>
  <style type="text/css">
   <![CDATA[
    .fil0 {fill:#004473}
    .fil1 {fill:#024675}
    .fil2 {fill:#054674}
    .fil9 {fill:#56839A}
    .fil33 {fill:#6E90A8}
    .fil34 {fill:#7895A7}
    .fil39 {fill:#8EA8B5}
    .fil22 {fill:#B7851E}
    .fil40 {fill:#BC9537}
    .fil5 {fill:#C49B47}
    .fil24 {fill:#C79B35}
    .fil12 {fill:#C9A856}
    .fil25 {fill:#C9D4D8}
    .fil18 {fill:#CBA745}
    .fil20 {fill:#CCA33B}
    .fil21 {fill:#D0AF55}
    .fil43 {fill:#D3AB44}
    .fil16 {fill:#D6B557}
    .fil42 {fill:#D7B34A}
    .fil15 {fill:#D8BA65}
    .fil36 {fill:#DBB44C}
    .fil38 {fill:#DBB552}
    .fil32 {fill:#DDBA54}
    .fil4 {fill:#DDBC5A}
    .fil35 {fill:#DEC15B}
    .fil6 {fill:#E2BD5B}
    .fil23 {fill:#E3BE62}
    .fil27 {fill:#E4C25C}
    .fil14 {fill:#E5C462}
    .fil37 {fill:#EACA65}
    .fil17 {fill:#ECCC6B}
    .fil41 {fill:#EED371}
    .fil31 {fill:#F2D472}
    .fil28 {fill:#F3D679}
    .fil26 {fill:#F5DB7C}
    .fil13 {fill:#F5DD82}
    .fil30 {fill:#F6E286}
    .fil29 {fill:#F9DE82}
    .fil8 {fill:#F9E289}
    .fil19 {fill:#FAE186}
    .fil3 {fill:#FAE58D}
    .fil7 {fill:#FAE692}
    .fil10 {fill:#FDEA96}
    .fil11 {fill:#FDEB9A}
   ]]>
  </style>
 </defs>
 <g id="Layer_x0020_1">
  <metadata id="CorelCorpID_0Corel-Layer"/>
  <g id="_2284179699536">
   <path class="fil0" d="M182.58 78.28c0.45,1.53 0.89,0.81 4.76,0.81 0.49,1.22 1.85,0.8 3.24,0.8l8.36 2.14c0.1,0.03 0.2,0.07 0.3,0.1 0.38,0.13 0.55,0.16 0.93,0.28l4.85 1.6c0.1,0.03 0.21,0.06 0.31,0.09l2.2 1.03c1.24,0.62 1.99,1.51 3.29,1.96l2.38 0.85c0.08,0.04 0.18,0.1 0.26,0.15l2.65 1.79c0.75,0.33 -0,0.02 0.89,0.32l1.65 0.77c0.06,0.06 0.13,0.16 0.19,0.22l3.97 2.89c0.07,0.05 0.16,0.12 0.23,0.17l0.93 0.68c0.07,0.05 0.18,0.11 0.25,0.16l2.13 1.91c0.07,0.05 0.18,0.1 0.25,0.15l1.89 1.75c1.06,1.12 1.75,1.19 3.25,1.19l0 2.42c0.63,0.01 0.48,-0.08 1.07,0.14l0.77 0.44c0.06,0.06 0.13,0.16 0.18,0.22l3.83 4.64c0.26,0.25 0.46,0.45 0.61,0.6l5.86 7.46c0.57,0.77 0.04,-0.2 0.42,0.79 0.59,1.52 0.51,1.75 1.58,2.85l2.42 4.44c1.09,3.17 0.54,-0.47 2.79,6.08 0.03,0.1 0.07,0.2 0.1,0.3 0.04,0.09 0.08,0.2 0.12,0.29l5.67 17.74c0.76,2.26 0.71,25.63 0.14,27.2l-4.18 14.78c-0.04,0.09 -0.09,0.19 -0.13,0.28l-1.7 4.36c-0.6,1.9 -1.91,3.46 -2.77,5.3l-0.64 1.78c-0.49,1.26 -1.31,1.38 -1.93,2.51l-5.16 7.75c-0.2,0.22 -0.49,0.53 -0.57,0.64 -0.67,0.94 -0.87,1.85 -1.85,2.59l-4.44 4.44c-0.29,0.28 -0.43,0.42 -0.61,0.6l-7.82 7.11c-0.37,0.77 -0.23,0.38 -0.25,1.37l-7.78 4.33c-0.07,0.05 -0.17,0.11 -0.24,0.16 -0.04,0.03 -0.87,0.7 -0.9,0.72l-1 0.61c-0.08,0.04 -0.19,0.09 -0.27,0.13l-4.06 2c-0.1,0.06 -0.42,0.22 -0.53,0.28l-1.61 0.81c-0.08,0.04 -0.18,0.1 -0.27,0.13l-5.65 2.42c-0.09,0.04 -0.19,0.09 -0.28,0.13l-11.72 3.61c-1.8,0.24 -4.11,-0.26 -5.76,0.29l-4.23 0.61c-1.62,0.33 -0.72,0.58 -2.49,0.74 -4.94,0.43 -32.38,-0.01 -38.75,-0.01 0,1.38 -0.41,46.96 0.06,48.36 0.38,1.1 -0.36,0.43 0.74,0.87 0.49,1.21 -0.88,0.6 1.57,0.85 3.98,0.41 43.54,-0.13 43.55,-0.13 1.9,-0.41 0.07,-0.08 1.17,-0.45 1.89,-0.64 4.39,-0.14 6.46,-0.8 0.1,-0.03 0.19,-0.08 0.3,-0.11 1.06,-0.28 1.54,-0.07 2.55,-0.27 1.45,-0.29 2.23,-0.73 4.55,-0.7 2.24,0.03 3.14,-0.54 5.21,-1.25 1.42,-0.48 3.12,-0.44 6.77,-1.7 0.1,-0.03 0.2,-0.07 0.3,-0.11l1.23 -0.39c0.1,-0.03 0.2,-0.08 0.29,-0.11l3.84 -1c0.1,-0.03 0.2,-0.08 0.29,-0.11l1.24 -0.37c0.1,-0.03 0.2,-0.07 0.3,-0.1l1.08 -0.53c0.08,-0.04 0.18,-0.11 0.26,-0.15l6.47 -2.41c0.08,-0.04 0.19,-0.09 0.27,-0.13l6.21 -2.66c2.12,-0.96 1.32,-1.25 3.33,-1.91 1.9,-0.62 0.34,0.15 1.84,-0.98l5.64 -3.64c0.64,-0.37 0.46,-0.1 1.2,-0.41 0.98,-0.41 0.01,0.1 0.79,-0.42 0.27,-0.18 0.61,-0.51 0.66,-0.55 0.07,-0.05 0.17,-0.12 0.24,-0.16l2.74 -2.11c0.58,-0.46 0.13,-0.11 0.74,-0.47l2.17 -1.46c0.07,-0.05 0.18,-0.1 0.26,-0.15 0.46,-0.28 0.26,-0.09 0.79,-0.42 0.05,-0.03 0.8,-0.64 0.89,-0.72l2.08 -1.55c1.71,-1 2.58,-2.76 4.32,-3.75 1.43,-0.82 1.52,-1.34 2.05,-1.99 0.59,-0.72 -0.18,0.04 0.64,-0.58l4.3 -3.77c0.82,-0.36 0.25,-0.24 1.35,-0.27l0 -2.42c1.22,-0.03 1.81,-0.53 2.64,-1.39 2.6,-2.7 2.42,-3.35 6.24,-7.07 0.07,-0.06 0.56,-0.53 0.62,-0.59l1.51 -2.53c1.36,-2.54 0.11,0.96 2.2,-3.45 0.13,-0.28 0.71,-0.94 0.89,-1.12l4.01 -5.68c0.05,-0.07 0.11,-0.17 0.16,-0.24l4.5 -8.01c0.4,-1 -0.11,-0.01 0.62,-1l1.47 -2.56c0.6,-1 -0.12,-0.62 0.96,-1.05l0 -4.03c2.42,-0.06 1.05,0.33 1.82,-1.01l1.49 -4.56c0.03,-0.1 0.06,-0.21 0.09,-0.31l1.17 -2.46c0.94,-1.78 1.16,-3.6 1.78,-5.48 0.16,-0.49 0.26,-0.84 0.39,-1.22 0.04,-0.1 0.18,-0.49 0.22,-0.59 0.03,-0.1 0.07,-0.2 0.11,-0.3l4.63 -22.01c0.13,-0.38 0.06,0.36 0.31,-0.9l0.27 -2.55c0.03,-0.1 0.07,-0.2 0.11,-0.3l0.24 -0.57c0.61,-1.84 0.68,-20.05 -0.12,-22.32l-0.23 -0.57c-0.53,-1.88 0.07,-4.08 -0.57,-5.88 -0.57,-1.61 -0.25,-3.15 -0.39,-4.86 -0.15,-1.78 -0.4,-0.87 -0.73,-2.5l-1.89 -9c-0.03,-0.11 -0.07,-0.21 -0.1,-0.31l-1.95 -6.52c-0.03,-0.11 -0.06,-0.21 -0.08,-0.32l-2.52 -7.56c-0.03,-0.1 -0.06,-0.22 -0.09,-0.32 -0.03,-0.1 -0.06,-0.21 -0.09,-0.31l-1.71 -3.54c-0.83,-1.67 -1.84,-3.3 -2.14,-5.12 -0.32,-1.96 -1.16,-2.47 -2.63,-4.63l-0.79 -2.04c-0.03,-0.1 -0.06,-0.21 -0.1,-0.3 -0.03,-0.09 -0.07,-0.2 -0.11,-0.29l-0.25 -0.56c-0.06,-0.11 -0.22,-0.42 -0.29,-0.52l-6.19 -9.96c-0.05,-0.11 -0.21,-0.43 -0.27,-0.54l-5 -6.7c-0.77,-1.22 -1.79,-1.85 -2.78,-2.87 -0.8,-0.82 -0.95,-1.14 -0.98,-2.25l-1.61 -0 -0.58 -0.52c-0.08,-0.07 -0.17,-0.16 -0.25,-0.24 -0.07,-0.07 -0.15,-0.15 -0.22,-0.22 -0.07,-0.06 -0.14,-0.14 -0.2,-0.2l-11.73 -11.27c-2.45,-1.45 -9.32,-7.96 -13.79,-10.41 -2.98,-1.63 -0.34,-2.07 -4.58,-2.35 -0.09,-1.4 -0.09,-1.22 -0.93,-2.23 -0.29,-1.46 0.86,0 -2.69,-1.75l-0.81 -0.4c-0.23,-0.12 -0.48,-0.24 -0.81,-0.4 -0.09,-0.04 -0.19,-0.09 -0.27,-0.13l-2.98 -1.86c-0.87,-0.44 -1.15,-0.17 -3.48,-1.36 -0.08,-0.04 -0.19,-0.1 -0.27,-0.14l-6.45 -3.24c-0.09,-0.04 -0.2,-0.08 -0.29,-0.12l-9.5 -3.42c-0.38,-0.13 -0.54,-0.16 -0.92,-0.29l-3.82 -1.02c-0.31,-0.1 0.28,-0.08 -0.9,-0.31 -1.38,-0.27 -2.17,0.21 -3.7,-0.33 -0.09,-0.03 -0.19,-0.09 -0.28,-0.12 -3.34,-1.45 -0.14,-0.89 -4.81,-1.24 -2.37,-0.18 -0.33,-0.64 -4.45,-0.8 -2.71,-0.11 -1.18,-0.37 -2.9,-0.73 -2.37,-0.51 -2.29,0.59 -5.85,-0.61 -1.61,-0.54 -6.2,-0.4 -7.79,-0.05 -3.24,-0.86 -15.81,-0.58 -20.18,-0.55 -3.37,0.02 -6.72,0.07 -10.09,0.1 -12.41,0.11 -9.71,-4.48 -9.71,25.24l0.01 18.96c-0.01,3.41 -0.67,5.17 2.05,5.59l9.26 -0.01c3.5,0 7,0 10.49,0l19.76 0.11c1.45,0.24 0.38,0.08 0.9,0.37z"/>
   <path class="fil0" d="M197.43 216.28c0.1,-0.09 0.24,-0.19 0.32,-0.26 0.08,-0.06 0.21,-0.17 0.3,-0.25l1.92 -1.78c0.8,-0.66 1.82,-1.07 2.84,-1.57 1.54,-0.76 4.07,-2.25 5.28,-3.24 3.07,-2.51 6.39,-5.11 9.27,-8.09 4.45,-4.6 7.28,-10.78 10.09,-16.18 1.47,-2.82 1.45,-4.61 2.66,-6.17 0.71,0.1 0.75,1.54 0.81,-1.21 1.18,-0.48 0.85,-1.84 0.81,-3.22l0.52 -3.51c0.61,-1.8 0.61,-14.59 0,-16.39 -0.8,-2.36 -0.18,-3.71 -0.8,-5.65l-3.03 -9.07c-0.03,-0.1 -0.06,-0.21 -0.09,-0.31l-2.88 -5.19c-0.35,-0.88 -0.01,-0.63 -0.46,-1.56 -0.43,-0.88 -0.92,-0.95 -1.53,-1.7l-1.77 -2.67c-0.94,-1.41 -0.47,-2.32 -2.88,-2.37 0,-1.08 0.13,-2.11 -0.8,-2.83l-1.35 -0.67c-1.18,-0.77 -0.86,-1.52 -1.68,-2.35 -1.11,-1.12 -0.23,-0.1 -1.53,-0.89 -0.08,-0.04 -0.18,-0.1 -0.25,-0.15l-1.06 -0.96c-0.33,-0.34 -0.4,-0.42 -0.59,-0.62l-2.68 -2.16c-0.08,-0.05 -0.18,-0.1 -0.26,-0.15l-7.57 -4.54c-1.77,-0.97 -1.45,-1.07 -3.74,-1.91l-0.83 -0.38c-0.2,-0.1 -0.76,-0.41 -0.78,-0.42l-11.57 -3.36c-0.1,-0.03 -0.19,-0.09 -0.29,-0.12 -2.19,-0.7 -4.72,0.52 -5.37,-1.08l-116.21 0c-0.31,0.87 0.01,0.4 -0.61,1 -0.61,0.59 -0.13,0.3 -1,0.61l0 188.84c1.53,0.03 1.79,0.83 6.05,0.81l41.56 0c5.47,0.02 4.21,-0.76 6.46,-0.81l0 -146.07c3.16,-1.14 3.04,-0.81 6.86,-0.81l46.4 0c1.85,0 4.22,-0.38 6.06,-0.01 1.23,0.25 0.77,-0.24 1.2,0.82l4.84 0c0.07,3.16 0.82,0.53 3.04,2.61 0.47,0.44 -0.07,0.04 0.59,0.62l0.96 0.66c0.18,0.12 0.33,0.18 0.49,0.32l1.38 2.25c0.04,0.08 0.09,0.19 0.13,0.27l1.64 3.21c0.94,1.83 0.68,1.8 0.67,5.02 -0.01,2.01 -0.94,6.26 -2.25,7.85 -0.74,0.89 -0.29,0.24 -0.81,0.81l-2.57 2.67c-0.1,0.07 -0.36,0.28 -0.45,0.35 -2.01,1.72 -2.78,1.07 -2.83,3.23l-12.11 0c-0.43,1.11 -0.58,0.27 -2.01,0.05l-24.23 -0.06c-1.23,0.25 -0.77,-0.24 -1.2,0.82 -1.24,0.5 -0.85,-0.55 -0.81,4.44 0.08,10.7 -0.45,25.63 -0.05,35.56 0.09,2.33 -0.28,1.51 0.86,1.97 0.44,1.09 -0.24,0.39 0.87,0.74 0.25,0.08 1.59,0.1 1.92,0.1 6.57,-0.09 35.37,0.6 38.08,-0.31 1.65,-0.55 3.2,-0.28 4.86,-0.79 0.1,-0.03 0.19,-0.08 0.29,-0.11l0.58 -0.23c1.77,-0.63 1.1,-0.71 3.07,-0.96 1.31,-0.17 2.22,-0.06 3.21,-0.83 0.09,-0.07 0.33,-0.31 0.43,-0.38l2.13 -1.11c0.69,-0.2 0.72,-0.14 1.45,-0.14z"/>
   <path class="fil1" d="M49.56 303.44c-0.11,0.07 -0.25,0.15 -0.35,0.19 -0.09,0.04 -0.23,0.13 -0.34,0.17l-1.42 0.44c0.29,6.92 -8.24,9.23 -8.98,13.72 0.62,1.87 2.17,3.02 3.01,4.98 0.75,1.74 0.5,2.95 3.14,4.64 1.97,1.26 4.92,0.16 6.42,-0.26 1.43,-0.39 1.86,-0.07 3.44,-0.63 1.75,-0.62 2.14,-0.83 3.16,0.15 0.09,1.07 0.89,0.68 2.39,2.21 1.93,1.98 4.79,2.94 5.38,5.93 0.36,1.84 -0.01,4.74 -0.42,5.91 -0.73,2.12 0.35,1.5 -1.13,2.1l0 7.26c1.16,0.03 0.54,-0.01 1.35,0.26l5.4 3.48c0.82,0.43 0.98,0.25 1.32,1.1l4.84 0c0.05,-2.16 0.9,-1.74 2.47,-2.78l1.54 -0.88c0.1,-0.07 0.36,-0.28 0.45,-0.36l1.6 -1.63c0.05,-0.08 0.1,-0.18 0.14,-0.26l0.26 -1.35 8.07 0c0.59,1.46 -0.02,0.44 2.11,1.12 0.13,0.04 0.48,0.16 0.61,0.2 2.14,0.66 2.81,1.03 3.56,3.29l1.17 3.67c0.03,0.1 0.07,0.2 0.11,0.3l1.71 5.14c0.04,0.09 0.09,0.19 0.13,0.28l0.55 1.06c0.04,0.08 0.1,0.19 0.14,0.27 0.19,0.38 0.03,-0.24 0.4,0.81l12.91 -0.81c1.33,-0.54 0.67,-1.21 1.34,-2.7l1.38 -3.46c0.03,-0.1 0.07,-0.2 0.11,-0.3l0.7 -2.13c0.28,-0.84 -0.06,0.25 0.21,-0.59l0.88 -2.35c0.49,-0.68 0.2,-0.26 0.6,-0.61 0.09,-0.08 0.36,-0.28 0.46,-0.35l0.5 -0.31c1.23,-0.72 2.37,-0.74 3.73,-1.11l3.54 -0.93c1.01,-0.33 0.1,-0.45 1.5,-0.47 1.63,-0.02 1.98,0.66 3.23,1.58l0.71 0.51c1.09,0.75 1.31,1.38 2.1,2.33 1.13,1.35 2.68,2.97 4.28,3.81 1.78,0.93 2.87,0.32 4.84,-0.36l1.15 -0.47c0.55,-0.27 0.38,-0.18 0.77,-0.44 0.3,-0.2 1.07,-0.86 1.36,-1.06l1.33 -0.68c1.48,-0.7 2.68,-2.33 4.03,-2.82l0 -3.23c-1.32,-0.53 -0.53,0.85 -0.82,-1.6l-0.77 -4.48c-0.2,-2.26 0.51,-1.45 -0.83,-2l0 -1.61c0.84,-0.34 0.98,-1.29 1.61,-2.02l1.32 -1.51c0.25,-0.37 0.29,-0.53 0.47,-0.74l2.07 -1.56c0.9,-0.8 1.43,-1.21 1.8,-2.24l5.65 0c0.66,1.64 -0.45,0.33 1.61,0.81 2.06,0.48 0.95,-0.84 1.61,0.81l6.46 0c0.44,-1.21 0.94,-1.15 1.81,-2.22l1.01 -1.81c0.04,-0.09 0.09,-0.19 0.13,-0.28 0.05,-0.11 0.2,-0.44 0.26,-0.55l0.82 -1.2c0.69,-0.9 1.39,-3.22 2.42,-3.63l0 -1.62c-1.13,-0.46 -0.84,-0.98 -2.42,-2.82l-3.85 -4.22c-1.48,-1.78 -2.6,-3.42 -2.6,-5.87 -3.58,0 -2,0.36 -3.84,-1.01 -0.77,-0.57 0.28,-0.11 -0.75,-0.46 -0.78,-0.26 -1.06,-0.09 -1.85,-0.17 -3.36,-0.31 0.06,-0.57 -3.25,-0.78 -1.4,-0.09 -2.71,0.46 -3.22,-0.81l-4.03 0c-0.47,1.31 -1.55,2.28 -2.14,3.51 -1.01,2.09 -2.64,3.61 -3.65,5.63l-2.26 3.38c-1.12,1.09 -2.39,1.97 -2.43,3.62l-2.42 0 0 2.42c-1.16,0.03 -0.54,-0.01 -1.35,0.26 -1.71,0.58 -2.5,1.97 -4.01,2.85l-0.81 0.4c-0.09,0.04 -0.19,0.09 -0.28,0.13l-5.6 3.28c-2.05,1.52 0.4,0.93 -2.87,1.17l-4.45 1.2c-1.68,0.73 -2.43,1.25 -4.41,1.24 -1.07,-0.01 -3.06,-0.15 -4.04,-0 -1.6,0.23 -3.33,1.61 -6.6,0.51l-8.66 -1.02c-0.09,-0.03 -0.2,-0.08 -0.29,-0.11l-4.54 -1.52c-0.1,-0.03 -0.2,-0.07 -0.3,-0.1l-2.38 -0.85c-0.32,-0.16 -0.61,-0.32 -0.8,-0.42 -0.99,-0.51 0.47,0.23 -0.54,-0.27 -0.26,-0.13 -0.46,-0.23 -0.81,-0.4l-3.54 -2.11c-3.87,-1.54 -2.11,-1.58 -4.54,-3.12 -0.07,-0.05 -0.18,-0.1 -0.26,-0.14l-2.43 -1.6c-0.72,-0.52 -0.19,-0.06 -0.69,-0.53 -0.06,-0.06 -0.13,-0.15 -0.19,-0.21 -1.38,-1.4 -1.48,-0.62 -2.61,-2.63 -0.04,-0.08 -0.09,-0.19 -0.13,-0.27l-3.61 -4.86c-0.05,-0.11 -0.2,-0.44 -0.26,-0.55 -0.67,-1.26 -1.72,-1.81 -2.46,-3.19 -0.06,-0.11 -0.21,-0.43 -0.26,-0.54l-1.86 -4.6c-0.04,-0.09 -0.09,-0.19 -0.13,-0.27l-0.42 -0.79c-0.16,-0.3 -0.12,-0.23 -0.28,-0.53l-0.9 -1.92c-0.16,-0.56 -0.15,-0.33 -0.17,-1.04l-3.23 0c-0.47,1.17 -1.71,0.71 -3.24,1.2l-2.98 1.05c-0.11,0.03 -0.21,0.06 -0.33,0.08 -0.12,0.02 -0.22,0.03 -0.35,0.05 -0.68,0.09 -1.2,-0 -1.91,0.12 -1.06,0.18 -2.17,0.57 -2.27,1.54z"/>
   <path class="fil2" d="M66.28 3.63l18.81 18.32c2.87,2.3 3.37,2.7 5.42,5.49l7.93 7.77c2.76,2.21 5.63,5.71 7.83,8.33 0.31,0.37 2.11,2.15 2.78,2.46 -0.14,3.63 -3.91,6.03 -5.02,7.09 -1,0.95 -0.44,0.79 -1.17,1.66 -0.9,1.07 -0.56,0.3 -1.52,1.3 -1.05,1.1 -1.12,1.76 -2.41,2.85 -0.81,0.68 -1.09,0.71 -1.6,1.21 -0.98,0.98 -0.08,0.53 -1.28,1.51l-2.85 2.83c-1.45,1.61 -1.38,0.44 -2.93,2.73 -1.16,1.72 -1.09,0.77 -2.51,2.7l-5.9 5.39c-2.38,1.54 -4.36,4.83 -5.22,5.69l-7.18 6.95c-2.1,1.67 -0.78,2.58 -4.79,3.67 -1.15,-0.16 -0.53,-0.56 -0.82,0.78 -0.04,0.17 0.01,1.73 0.01,2.04 1.42,0 3.09,0.09 4.47,0.03 3.65,-0.16 0.41,-0.64 3.62,-0.88 1.75,-0.13 1.52,0.86 8.06,0.85l48.42 -0.4c1.34,-0.48 2.55,-0.4 4.04,-0.4l0 -25.02 -8.07 0 -0.29 5.91c0.52,2.02 0.27,4.08 0.3,6.2 0.06,4.47 0.42,3.53 -0.81,4.03 -0.49,1.21 0.88,0.6 -1.57,0.85 -3.61,0.37 -34.66,-0.04 -38.78,-0.04l0 -1.61c2.97,-0.07 0.46,0.27 2,-1.22 0.44,-0.42 0.04,-0.07 0.68,-0.53l6.85 -6.87c0.64,-0.95 0.14,-0.46 0.96,-1.06 0.07,-0.05 0.18,-0.1 0.25,-0.15l1.19 -0.83c0.08,-0.08 0.3,-0.34 0.37,-0.43l0.31 -0.5c0.86,-1.3 2.17,-1.67 3.08,-2.97l0.45 -0.76c0.58,-0.79 0.43,-0.52 1.32,-1.11 2.64,-1.74 0.29,-1.29 3.23,-3.23l1.46 -1.36c0.05,-0.07 0.1,-0.18 0.15,-0.25l0.65 -0.96c0.06,-0.06 0.15,-0.13 0.22,-0.19 0.07,-0.06 0.17,-0.12 0.24,-0.17 1.68,-1.23 2.23,-2.53 3.74,-3.53 1.19,-0.78 1.66,-2.15 2.72,-2.93 2.36,-1.73 1.89,-2.22 3.99,-3.68l1.35 -1.48c0.77,-1.22 -0.87,-1.24 1.93,-1.3l0 -2.42c-1.4,-0.5 -0.15,0.14 -1.22,-0.79l-1.82 -1.82c-0.07,-0.05 -0.17,-0.12 -0.24,-0.17l-9.63 -9.74c-1.33,-1.58 -3.86,-3.11 -4.84,-4.44l-0.3 -0.5c-1.69,-2.5 -5.57,-5.27 -6.61,-6.31 -0.54,-0.54 0.01,0.05 -0.51,-0.7 -0.05,-0.07 -0.1,-0.18 -0.15,-0.25 -0.05,-0.07 -0.1,-0.18 -0.15,-0.25 -0.05,-0.07 -0.12,-0.17 -0.17,-0.24 -0.6,-0.78 -0.42,-0.46 -1.2,-1.22l-2.27 -2.17c-0.07,-0.05 -0.18,-0.1 -0.25,-0.15l-0.96 -0.66c-0.06,-0.06 -0.13,-0.15 -0.19,-0.22 -0.16,-0.19 -0.24,-0.41 -0.47,-0.74l-1.72 -1.91c-1.24,-1.22 -3.82,-3.13 -4.44,-4.84 9.39,0 29.33,-0.42 38.39,-0.05 2.33,0.09 1.51,-0.28 1.96,0.86 1.17,0.47 0.85,1.81 0.83,3.21 -0.06,3.34 -0.41,7.25 -0.06,10.55 0.25,2.45 -0.36,1.08 0.85,1.57 0.43,1.05 -0.03,0.57 1.2,0.82l4.06 0c1.23,-0.25 0.77,0.24 1.2,-0.82 0.97,-0.39 0.85,-1.18 0.85,-2.38l-0.04 -22.64 -68.6 0 0 3.23c0.93,0.02 0.99,0.18 1.35,0.25l0.82 0.13c0.05,0.01 0.17,0.04 0.26,0.03z"/>
   <path class="fil3" d="M2.86 139.62l0.07 1.61c-0.53,1.38 -0.4,0.77 -0.4,2.42 1.33,0.54 0.71,1.37 2.24,3.41l2.22 3.83 4.01 3.25c0.86,-0.92 -0.51,-0.85 1.42,-0.3 0.05,0.01 0.61,0.53 0.96,0.71l-0.43 -2.1c4.52,-1.02 1.81,-1.61 5.32,-1.57 0.64,1.04 1.47,9.84 1.51,10.92 0.12,2.95 0.11,9.26 -0.54,11.88 -1.61,-0.8 -0.64,0.23 -1.56,-1.78 0.71,-0.97 -1.06,-0.8 0.83,-0.81 -1.36,-0.71 -0.05,0.6 -0.94,-2.11 -0.03,-0.1 -0.07,-0.2 -0.1,-0.3l-2.41 -5.67c-1.68,-3.45 -1.26,-1.46 -2.56,-3.52 -0.04,-0.07 -0.1,-0.18 -0.14,-0.25 -0.64,-1.12 0.38,-0.27 -0.54,-1.07 -0.11,0.08 -0.23,0.18 -0.31,0.25l-0.76 0.76c-0.09,0.1 -0.28,0.38 -0.36,0.46l-7.44 2.6c-0.07,-0.07 -0.13,-0.2 -0.16,-0.25 -0.86,-1.12 -0.7,-1.1 -1.6,-1.42 0.26,1.62 0.99,3.01 0.61,4.85 -0.11,2.08 0.13,1.83 0.75,3.63 0.66,1.91 0.81,1.64 0.81,3.63l0.81 0c0.28,1.07 -0.17,0.47 0.81,0.71 2,1.28 3.81,5.21 6.48,6.64l-0.32 -2.81c1.28,-0.06 3.1,0.12 4.25,-0.16 2.21,-0.52 0.87,-1.19 3.26,-1.22l0.22 3.37c-0.16,1.89 0.49,3.91 -0.17,5.58 0,3.18 0.5,11.63 -0.4,12.91l-0.21 -0.59c-0.02,-0.08 -0.06,-0.23 -0.08,-0.32 -0.59,-2.89 0.08,-1.17 -1.44,-4.2 -0.04,-0.08 -0.09,-0.19 -0.13,-0.27 -0.28,-0.54 -0.14,-0.33 -0.43,-0.78 -0.23,-0.36 -0.19,-0.24 -0.53,-0.68 -0.34,-0.44 -0.29,-0.33 -0.53,-0.68l-2.37 -4.06c-1.2,-1.59 0.01,-0.89 -1.42,-1.31 0.44,0.82 -0.08,0.54 1.09,1.61 -0.13,-0.04 -0.76,-0.32 -0.9,-0.36 -3.25,-0.99 1.56,-0.18 -1.08,-0.24l-8.3 2.99 0.2 3.26c-0.59,1.54 -0.4,1.48 -0.4,3.23 1.4,0.57 0.89,0.7 1.79,3.46 0.75,2.28 4.72,7.26 6.08,8.02 1,0.55 -0.32,0.44 1.01,0.22 1.2,0.22 0.67,-0.03 1.32,0.4l-0.08 -1.97c3.25,-0.11 4.91,-2.63 6.61,-2.69 0.31,1.63 0.51,3.8 0.67,5.49 0.49,4.94 1.35,15.24 0.41,19.09 -1.98,-0.02 -0.54,0.34 -1.92,-0.67 -0.52,0.26 -1.78,-0.67 -3.72,-0.03 -0.12,0.04 -0.2,0.1 -0.32,0.15 -0.11,0.04 -0.19,0.11 -0.29,0.15 -2,0.85 1.83,-0.35 -0.85,0.36 -1.22,0.32 -0.98,-0.19 -2.51,0.38 -3.07,2.13 -0.23,3.07 -1.34,3.54l2.4 2.7c0.64,-0.55 0.16,0.08 0.56,-1.08 0.2,-0.59 -0.19,-0.16 0.27,-1.1 1.21,-0.28 3.07,-0.45 4.07,-0.87 1.2,-0.51 0.26,-0.14 0.78,-0.45 1.34,-0.79 0.96,-0.72 2.62,-0.61 0.03,5.02 0.38,9.23 0.57,14l0.6 -2.03c0.18,-1.27 0.13,-0.89 0.37,-2.13 0.41,-2.12 -0.1,-3.5 0.58,-4.89 0.75,-1.54 1.28,-1.03 3.91,-2.59l3.33 -1.22c0.32,0.86 0.92,0.97 -0.14,1.87 0.14,-0.72 3.42,-3.87 4.37,-4.74l1.14 -0.91c0.7,0.1 0.75,1.54 0.81,-1.21 1.08,-0.44 0.36,-0.06 0.96,-1.05l0.65 -1.37c0.04,-0.09 0.09,-0.19 0.13,-0.28l0.38 -0.83c0.75,-1.38 0.13,-0.93 1.1,-1.32 0,-1.74 0.2,-1.68 -0.4,-3.23 0.45,-2.52 0.46,-0.74 0.77,-2.49 -3.31,0.16 -6.21,2.56 -6.28,2.59l-7.81 1.57c-0.21,2.36 0.13,0.21 -0.81,1.16 -0.71,-0.1 -0.75,-1.54 -0.81,1.21l-0.81 0 0 -1.1c-0.41,3.8 2.84,-0.79 0.4,4.73 -0.75,-0.42 -2.11,0.81 -1.48,-4.44 0.26,-2.17 0.11,-3.19 0.14,-5.25 0.04,-2.92 -0.09,-7.21 1.28,-9.28 0.1,-0.06 0.26,-0.22 0.32,-0.12 0.07,0.11 0.45,-0.16 0.65,-0.22 0.42,-0.13 0.53,-0.13 0.95,-0.28 1.07,-0.4 0.63,-0.37 1.83,-0.92 1.91,-0.88 2.54,-0.59 4.81,-1.15 0.86,0.86 0.47,-0.57 0.18,1.08l1 -1.25c0.06,-0.06 0.16,-0.13 0.22,-0.19l4.53 -7.15c0.8,-1.76 1.33,-3.57 1.33,-5.51 -0.81,-0.7 -0.15,-0.31 -1.49,-0.64 -0.22,0.27 -1.05,1.26 -1.06,1.27 -1.81,1.49 -3.5,0.93 -5.05,1.28 -2.66,0.58 -3.86,2.24 -6.57,0.61 -0.74,0.66 1.27,0.94 -0.55,0.16 -1.15,-0.49 -0.05,0.05 -0.2,-0.66 -0.61,0.93 0.02,1.44 -1.23,2.42 1.8,0.86 1.45,0.31 0.4,3.63 -1.26,-0.89 -0.98,1.09 -1.51,-1.94 -0.01,-0.04 0.1,-1.89 0.12,-2.46 0.15,-5.91 -1.19,-14.94 3.17,-16.32 5.55,-1.76 5.83,-1.26 9.11,-4.32 0.08,-0.07 0.2,-0.18 0.26,-0.24l0.55 -0.53c1.13,0.31 0.45,0.93 0.81,-0.41 1.09,-0.44 0.36,-0.06 0.96,-1.05l0.4 -0.81c2.28,-4.61 0.09,-3.07 1.87,-3.78 0,-1.74 0.2,-1.68 -0.4,-3.23 0.43,-2.95 0.46,-0.51 0.66,-2.38 -1.27,0.55 -1.63,1.08 -3.04,1.57l-2.96 1.09c-0.09,0.03 -0.2,0.07 -0.3,0.1 -1.52,0.55 -5.75,2.22 -7.23,1.29 -0.9,0.82 -0.48,0.66 -0.85,1.94 -1.39,-0.81 -1.33,1.14 -1.08,-1.21l-0.03 2.42c0.04,0.71 0.16,1.24 -0.12,1.85 -0.87,1.89 0.49,0.55 -1.59,1.37 -0.4,-4.8 -0.33,-13.56 0.45,-18.18 1.34,-0.96 3.34,-2.07 5.6,-2.17 0.03,0.04 1.13,-0.48 0.43,1.39l5.34 -5.39c0.05,-0.17 0.19,-0.17 0.29,-0.26 1.13,0.31 0.45,0.93 0.81,-0.41 1.17,-0.47 -0.02,0.27 0.64,-0.57l1.93 -3.72c1.65,-3.49 -0.36,-2.24 1.46,-2.97 0,-1.65 0.13,-1.04 -0.4,-2.42 0.39,-2.53 0.44,-0.67 0.85,-2.83 -1.75,0.68 -2.05,0.45 -4.01,0.9 -1.47,0.33 -0.49,0.42 -3.22,1.23 -2.45,0.73 -2.97,2.83 -6.53,1.54 -0.32,0.81 -1.32,2.2 -1.58,3.47 -0.22,1.07 0.08,1.15 -0.47,2.32l-1.19 1.51c-0.07,-0.09 -0.23,0.24 -0.35,0.34l-0.66 -9.12c-0.57,-0.99 0.15,0 -0.7,-0.71 -0.03,2.35 -0.03,4.65 0.03,6.65 0.08,2.62 0.27,3.37 -1.08,4.73 -1.25,-2.23 -0.75,-1.97 -1.23,-4.03 -0.17,-0.74 -0.46,-1.14 -0.75,-1.68 -1.09,-2 -0.24,0.54 -0.89,-1.89l0.48 -1.6c-1,-0.39 -0.38,0.05 -1.04,-1.08l-0.25 -0.55c-0.87,-1.71 -0.4,-1.29 -1.21,-1.62 -0.41,-1.53 0.11,-0.56 -0.81,-0.41 -0.28,-0.1 -0.89,-0.14 -1.19,-0.4 -0.4,0.73 -0.7,0.36 -1.7,1.58 -2.67,3.25 -1.96,0.38 -2.75,3.31 -1.26,0.03 -3.44,0.39 -4.04,-0.45 -0.81,0.69 -1.99,-0.45 -0.47,1.21z"/>
   <path class="fil4" d="M18.29 119.84c0.84,1.18 0.55,0.91 0.45,2.55 -1.2,0.6 -1.11,0.2 -2.24,0.61l-4.53 3.52c-0.03,-0.06 -0.08,0.24 -0.15,0.33 -1.06,-1.59 -0.42,-0.71 -1.76,-1.65l-1.34 -1.41c-1.39,-0.9 -0.96,-0.88 -1.75,-2.34 -0.98,0.76 -1.83,-0.9 -0.4,1.21 0.28,1.44 2.67,3.08 3.82,4.25 1.43,1.45 3.48,2.61 5.55,3.33l1.2 0.41c0.58,0.11 0.94,0.08 1.53,0.08l-0.81 12.91c0,-0.4 0.05,-1.2 -0.07,-1.55 -0.38,-1.11 0.37,-0.43 -0.74,-0.88l0 -1.61 -1.21 0c0.65,2.43 -0.2,-0.11 0.89,1.89 0.3,0.54 0.58,0.94 0.75,1.68 0.48,2.06 -0.02,1.8 1.23,4.03 1.36,-1.36 1.17,-2.12 1.08,-4.73 -0.06,-2 -0.06,-4.3 -0.03,-6.65 0.85,0.72 0.13,-0.28 0.7,0.71l0.66 9.12c0.13,-0.11 0.28,-0.43 0.35,-0.34l1.19 -1.51c0.55,-1.17 0.25,-1.25 0.47,-2.32 0.27,-1.26 1.26,-2.66 1.58,-3.47 3.56,1.29 4.08,-0.81 6.53,-1.54 2.73,-0.82 1.75,-0.9 3.22,-1.23 1.97,-0.45 2.26,-0.22 4.01,-0.9 -0.42,2.16 -0.46,0.3 -0.85,2.83 1.68,-0.44 1.21,0.51 1.21,-2.42 2.42,-0.97 -0.8,-3.06 1.61,-4.03 0,-0.46 0.09,-1.71 0.06,-2.05 -0.27,-3.16 0.25,-1.11 -0.86,-1.99 0.58,1.18 0.74,0.66 0.36,2.47 -0.31,1.48 -0.89,0.78 -0.93,0.78 -0.74,0.13 -1.97,1.13 -3.06,1.63 -2.06,0.96 -3.62,2.63 -5.67,2.47 -1.87,-0.14 -0.81,0.38 -1.46,-1l-3.77 3.73c-1.13,-0.31 -0.45,-0.93 -0.81,0.41 -1.26,0.51 -1.61,2.41 -1.61,4.04l-0.81 -9.68 1.36 -0.66c2.95,-1.49 1.03,-1.46 4.55,-3.52 2.11,-1.23 2.86,-3.27 4.58,-3.9l0 -2.01c-2.06,0.31 0.13,-1.67 -2.19,-0.94 -1.47,0.46 -0.01,0.64 -2.28,1.8 -9.32,4.76 -6.54,-3.59 -5.47,-4.9 -1.3,-0.24 -1.45,0.32 -1.79,-1.48l-0.91 -5.91c-0.06,3.74 0.7,9.02 -1.47,9.81z"/>
   <path class="fil5" d="M31.98 67.55c-1.25,1.85 -3.14,3.02 -4.84,5.08 -4.28,-1.07 -2.32,0.46 -5.83,0.94l-0.08 -3.16 -0.65 -1.11 -0.99 0c-0.25,2.59 0.17,2.53 0.39,4.53 -2.86,0.68 -0.42,-0.39 -1.63,1.36l-0.93 1.04c-0.03,0.03 -0.16,0.27 -0.18,0.2 -0.02,-0.07 -0.15,0.13 -0.18,0.22l0.81 0.16 0.83 0.64c0.06,3.23 -0.04,6.48 0.02,9.72 0.06,3.06 -0.42,2.02 -0.69,3.25 -0.22,0.99 0.65,2.67 0.9,4.35l-0.17 3.26c-0.09,0.07 -0.22,0.13 -0.29,0.17l-3.24 1.64c-0.87,0.64 -0.53,0.78 -1.41,1.19 -1.29,-0.74 -0.7,-0.69 -2.42,-1.38 0.3,1.28 0.16,0.63 0.43,1.1 0.99,1.78 3.02,2.19 4.62,2.72 0.1,0.03 0.2,0.08 0.29,0.11l1.92 0.5 -0.22 12.91c-1.06,0.42 -0.45,0.25 -0.8,1.49l0.64 1.33c2.17,-0.78 1.41,-6.07 1.47,-9.81l0.91 5.91c0.33,1.8 0.49,1.24 1.79,1.48l0.39 -2.26 -1.35 -0.56c1.1,-2.85 0.4,-7.29 0.4,-10.49 3.17,-0.07 3.71,-2.42 6.72,-4.17l3.91 -4.7c0.01,-1.99 1.3,0.16 -0.55,-1.21 -0.74,2.22 -1.93,1.98 -2.83,4.09 -1.89,0.38 -2.75,0.11 -4.42,0.72 -1.52,0.55 -1.35,1.13 -3.03,1.1 -0.2,-1.84 -0.51,-4.95 -0.31,-6.73 0.27,-2.45 1.54,-3.19 1.62,-5.82 -1.55,0.22 -0.62,-0.21 -1.92,0.36 0.79,-2.68 0.84,-1.98 0.81,-5.02 -0.01,-1.5 -0.02,-3.01 -0.01,-4.52l5.62 -4.39c0.17,-0.12 0.7,-0.6 0.86,-0.76 0.08,-0.08 0.31,-0.33 0.39,-0.41 0.15,-0.15 0.35,-0.35 0.6,-0.61l5.18 -6.12c0.28,-0.61 0.33,-0.85 0.58,-1.35 -0.22,-1.75 0.78,-0.08 -0.6,-1.21 -0.12,1.63 -1.44,3.55 -2.54,4.2z"/>
   <path class="fil3" d="M12.21 79.49c-1.21,-0.85 -0.53,1.17 -1.03,-1.24 -2.08,1.77 -5.79,3.35 -9.06,3.28 0,2.23 0.67,3.74 0.81,5.63 -0.53,1.38 -0.4,0.77 -0.4,2.42 1.53,0.62 0.13,-0.26 1,1.83l0.78 1.24c1.69,2.33 -0.42,1.02 1.45,1.77 0.41,1.53 -0.11,0.56 0.81,0.41l4.04 4.04c1.51,0.14 0.22,0.33 1.18,-2.04 2.56,-0.14 4.44,-0.94 7.15,-2.02 -0.25,-1.68 -1.12,-3.36 -0.9,-4.35 0.27,-1.23 0.74,-0.2 0.69,-3.25 -0.06,-3.24 0.04,-6.49 -0.02,-9.72l-0.83 -0.64c0.86,1.87 0.82,-0.71 0.81,5.89 -0,2.29 0,4.57 0,6.86l-0.81 0c0,-0.82 0.07,-1.09 -0.15,-1.87 -0.03,-0.1 -0.07,-0.2 -0.1,-0.3 -0.03,-0.09 -0.08,-0.19 -0.12,-0.28 -0.04,-0.09 -0.09,-0.19 -0.13,-0.27l-0.7 -1.32c-0.04,-0.08 -0.09,-0.19 -0.14,-0.27 -0.04,-0.08 -0.09,-0.19 -0.14,-0.27 -0.07,-0.14 -0.2,-0.4 -0.27,-0.54l-0.94 -1.89c-0.72,-1.49 -1.45,-3.34 -2.96,-3.09z"/>
   <path class="fil6" d="M8.58 231.22l-2.02 -1.61 3.03 4.63c0.58,0.45 0.14,0.12 0.74,0.47 0.46,0.27 0.27,0.1 0.78,0.43l2.98 1.86c0.19,0.09 0.53,0.26 0.81,0.4 0.08,0.04 0.19,0.09 0.27,0.14 0.75,0.38 -0.21,-0.11 0.54,0.27l2.96 1.07 -0.8 12.91c-0.47,3.07 0.35,0.84 0.74,3.25 0.22,1.38 -0.29,1.71 -0.48,3.06 -1.04,0.06 -4.8,0.09 -5.48,0.25 -2.16,0.5 -0.61,2.29 -1.24,2.8 -0.63,-1.36 -1.64,-1 -2.81,-2.48 -1.07,-1.36 -0.36,-0.92 -2.01,-2.47l-0.83 -0.77 0 1.61c0.88,0.84 4.4,4.03 4.84,5.25l1.61 -0.4c1.84,0.55 2.29,1.26 4.03,1.61 -0.38,-0.55 -0.54,-1.07 -0.53,-2.13l3.93 -0.48c0.46,-9.6 0.61,-3.15 1.07,-7.05l0.21 7.85c2.25,0.2 4.22,-0.91 5.82,-1.97 1.68,0.41 -0.37,0.04 1.21,0.98 0.69,-1.39 1.92,-1.56 2.42,-2.99 -2.09,0.28 -1.32,-0.37 -3.99,0.99 -0.93,0.48 -1.19,0.62 -2.41,0.89 -0.51,0.12 -0.96,0.18 -1.3,0.17 -0.78,-0.01 -0.46,0.02 -1.04,-0.18l-0.19 -3.15c-0,-5.44 1.96,-3.91 1.28,-6.09 -0.03,-0.09 -0.1,-0.19 -0.14,-0.28 -1.11,-2.49 -0.17,1.1 -0.7,-1.24 -0.18,-0.8 0.02,-7.73 0.03,-9.13l1.36 -1.08c0.08,-0.05 0.19,-0.09 0.28,-0.14l1.6 -1.2c0.06,-0.06 0.12,-0.16 0.18,-0.22l0.41 -0.4c0.7,-0.59 -0.29,0.21 0.48,-0.33 2.53,-1.78 5.17,-5.25 6.8,-6.51 0.62,-0.49 0.16,-0.3 1.01,-0.61l0 -2.01 -1.14 0.91c-0.95,0.86 -4.22,4.01 -4.37,4.74 1.07,-0.91 0.46,-1.01 0.14,-1.87l-3.33 1.22c-2.63,1.56 -3.16,1.04 -3.91,2.59 -0.68,1.39 -0.17,2.77 -0.58,4.89 -0.24,1.24 -0.19,0.86 -0.37,2.13l-0.6 2.03c-0.19,-4.77 -0.54,-8.98 -0.57,-14 -1.65,-0.11 -1.28,-0.18 -2.62,0.61 -0.52,0.31 0.42,-0.06 -0.78,0.45 -0.99,0.42 -2.86,0.59 -4.07,0.87 -0.45,0.94 -0.06,0.51 -0.27,1.1 -0.4,1.16 0.08,0.52 -0.56,1.08l-2.4 -2.7z"/>
   <path class="fil7" d="M4.54 280.04l-0.48 1.6c1.42,0.49 1.37,0.87 1.85,1.88l0.37 0.84c0.04,0.08 0.09,0.19 0.13,0.28l0.42 0.79c0.72,1.16 1.34,1.43 2.42,2.02l1.1 0.66c0.81,-1.48 0.66,1.7 0.59,-3.27 4.3,-1.09 1,-0.81 7.17,-0.85l0.41 -2.43c-0.24,-1.12 -0.5,-1.21 -0.66,-2.91l0.72 0.18c-0.76,-0.82 -0.29,-0.31 -0.64,-1.27l-0.27 -0.98c-0.03,-0.1 -0.06,-0.21 -0.1,-0.3l-2.43 -5.62c-0.82,-1.58 -1.27,-0.38 -1.32,-2.72l-1.61 -0.11c-3.04,-1.08 -1.8,-1.04 -3.83,1.13 -0.06,0.06 -0.13,0.15 -0.19,0.2 -0.06,0.06 -0.15,0.13 -0.22,0.18l-1.27 0.73c-0.06,0.03 -1.1,0.44 -1.14,0.45l-2.83 0.41c-0.06,-0.1 -0.22,0.06 -0.32,0.11 -0.87,0.93 0.26,4.16 1.32,6.7 0.72,1.74 0.46,0.49 0.81,2.3z"/>
   <path class="fil7" d="M2.12 57.3c-0.59,1.54 -0.4,1.48 -0.4,3.23 1.66,0.67 -0.11,-0.61 1.33,2.7 0.04,0.09 0.09,0.19 0.13,0.27l2.12 3.53c0.05,0.07 0.11,0.17 0.16,0.24l1.1 1.72c0.07,0.09 0.29,0.35 0.36,0.45l0.46 0.75c0.04,0.08 0.09,0.19 0.13,0.27 0.04,0.08 0.09,0.19 0.13,0.27l0.53 1.09 1.61 -0.4c0.94,0.39 0.8,-0.47 0.81,0.4 1.06,-0.75 0.02,-0.27 0.57,-1.84 0.87,-2.51 2.83,-1.23 4.14,-2.73l0.42 -0.74c0.03,-0.05 0.06,-0.19 0.12,-0.27 1.35,0.15 1.46,-0.11 2.09,0.66l0.33 -1.53c0.53,-1.38 0.4,-0.77 0.4,-2.42 -1.58,-0.64 -0.25,0.28 -0.83,-1.19l-1.68 -4.38c-0.03,-0.1 -0.06,-0.21 -0.09,-0.31l-1.63 -2.83c-0.42,-0.57 -0.12,-0.11 -0.48,-0.72 -0.68,-1.16 0.41,-0.22 -0.54,-1.06l-0.77 0.24c-0.09,0.01 -1.08,0.73 -2.9,-2.26 0.36,3.66 -4.81,4.49 -7.64,4.54l0 2.33z"/>
   <path class="fil7" d="M2.93 248.56c-0.53,1.38 -0.4,0.77 -0.4,2.42 2.04,0.82 -0.28,0.8 1.4,2.63 0.58,0.63 0.17,0.29 1.02,0.59 0.06,2.75 0.1,1.31 0.81,1.21l0.83 0.77c1.65,1.55 0.94,1.12 2.01,2.47 1.16,1.48 2.18,1.12 2.81,2.48 0.62,-0.51 -0.93,-2.3 1.24,-2.8 0.69,-0.16 4.44,-0.18 5.48,-0.25 0.19,-1.35 0.71,-1.67 0.48,-3.06 -0.39,-2.42 -1.2,-0.18 -0.74,-3.25 -0.02,-2.15 0.51,-2.27 -0.82,-2.16l-1.49 -2.54c-0.39,-0.98 -0.49,-1.24 -1.08,-2.13 -0.5,-0.75 -2.49,-3.47 -2.67,-3.98l-0.87 1.45c-9.6,0.22 -0.69,3.27 -8.79,1.66 0.21,1.83 0.68,2.95 0.79,4.48z"/>
   <path class="fil8" d="M23.01 87.38c-0.08,2.62 -1.35,3.37 -1.62,5.82 -0.2,1.79 0.11,4.89 0.31,6.73 1.68,0.03 1.52,-0.55 3.03,-1.1 1.68,-0.61 2.53,-0.35 4.42,-0.72 0.9,-2.11 2.09,-1.87 2.83,-4.09 1.85,1.36 0.55,-0.78 0.55,1.21l3.09 -4.44c1.07,-3.33 0.52,0.51 1.64,-4.01 0.31,-1.24 -0.36,-0.78 0.78,-1.24 0,-1.65 0.13,-1.04 -0.4,-2.42 0.37,-2.26 -0.55,1.86 0.28,-0.82 0.46,-1.49 0.77,-0.36 0.28,-1.53 -0.55,-1.34 -5.05,1.09 -5.89,1.49 -5.13,2.51 -4.77,2.88 -7.99,2.69 -0.23,1.71 -0.94,2.07 -1.31,2.42z"/>
   <path class="fil3" d="M22.34 59.72c-1.08,0.85 -0.18,0.34 -0.42,1.61 -0.43,2.35 0.61,1.03 -0.83,1.61 0,1.22 0.01,2.44 0.02,3.67 0.02,3.36 0.02,2.44 -0.53,2.7l0.65 1.11 0.59 1.62c1.49,-0.95 3.19,-2 4.66,-2.89 1.64,-0.99 3.18,-2.32 5.51,-1.6 1.1,-0.65 2.43,-2.57 2.54,-4.2 1.38,1.13 0.39,-0.55 0.6,1.21l2.4 -5.35c0.03,-0.1 0.07,-0.2 0.11,-0.3l0.21 -0.59c0.86,-2.57 1.25,-1.87 0.87,-5.06l-0.25 -0.86 -0.09 0.91c-1.82,0.1 -2.54,0.18 -3.73,1.02l-2.85 1.58c-1.01,0.4 -2.58,1.09 -3.51,1.4 -1.83,0.61 -2.08,0.59 -3.57,0.04 -0.59,1.73 -1.47,3.79 -2.79,4.79 0.25,-1.25 0.47,-1.72 0.41,-2.42z"/>
   <path class="fil9" d="M66.28 3.63l0 2.01 4.61 3.87c1.84,1.56 4,3.03 5.43,5.06 0.05,0.07 0.1,0.18 0.15,0.25 0.9,1.33 2.29,1.8 3.23,3.23 0.93,1.4 2.29,1.8 3.23,3.23 0.19,0.29 0.34,0.59 0.47,0.75l7.86 7.48c0.64,0.44 0.9,0.77 1.36,1.46l4.84 4.85c0.07,0.05 0.18,0.1 0.25,0.15 2.18,1.54 4.33,5 5.97,6.14l1.47 1.76c0.05,0.08 0.09,0.19 0.14,0.26 0.05,0.07 0.11,0.18 0.16,0.24 1.12,1.37 0.68,0.38 1.62,1.21 1.17,1.04 -0.34,0.62 1.18,1.24l0 0.81c-1.03,0.37 -1.77,1.25 -2.28,2.16 -1.35,2.43 -2.01,1.24 -3.5,3.76 -0.41,0.7 0.12,0.11 -0.49,0.72 -0.55,0.55 -0.17,0.1 -0.72,0.49 -0.77,0.54 0.21,-0.28 -0.5,0.31 -0.06,0.05 -0.16,0.13 -0.22,0.19 -0.99,0.97 -1.41,2.16 -2.59,3.06 -0.07,0.05 -0.17,0.12 -0.24,0.17l-0.5 0.3c-0.79,0.54 -0.16,-0.04 -0.7,0.51 -0.52,0.53 -0.84,1.43 -1.97,2.06l-0.54 0.27c-1.31,0.87 -0.65,0.85 -1.34,1.89 -0.8,1.21 -0.51,0.61 -1.35,1.07l-1.49 1.34c-0.74,1.26 0.62,0.27 -1.22,1.61l-5.5 5.39c-0.98,1.41 -2.66,2.11 -4.11,3.56l-2.84 3.62c-0.89,0.88 -1.4,0.9 -2.1,1.94l-7.77 8.37 -1.61 0 0 1.21c4.01,-1.09 2.69,-2 4.79,-3.67l7.18 -6.95c0.86,-0.86 2.84,-4.15 5.22,-5.69l5.9 -5.39c1.42,-1.93 1.35,-0.98 2.51,-2.7 1.55,-2.29 1.48,-1.12 2.93,-2.73l2.85 -2.83c1.2,-0.98 0.3,-0.53 1.28,-1.51 0.5,-0.5 0.79,-0.53 1.6,-1.21 1.29,-1.09 1.36,-1.76 2.41,-2.85 0.96,-1 0.62,-0.22 1.52,-1.3 0.73,-0.87 0.17,-0.71 1.17,-1.66 1.11,-1.06 4.88,-3.46 5.02,-7.09 -0.67,-0.31 -2.47,-2.09 -2.78,-2.46 -2.2,-2.62 -5.07,-6.12 -7.83,-8.33l-7.93 -7.77c-2.05,-2.79 -2.55,-3.18 -5.42,-5.49l-18.81 -18.32z"/>
   <path class="fil7" d="M22.84 115.16l-0.39 2.26c-1.07,1.31 -3.85,9.65 5.47,4.9 2.27,-1.16 0.81,-1.34 2.28,-1.8 2.32,-0.73 0.13,1.25 2.19,0.94 1.13,0.31 0.45,0.93 0.81,-0.41 1.05,-0.42 0.23,0.32 2.14,-2.7l0.55 -1.07c0.05,-0.11 0.19,-0.45 0.25,-0.56 0.84,-1.58 -0.39,-0.72 1.1,-1.32 0,-1.65 0.13,-1.04 -0.4,-2.42 0.11,-1.62 0.36,-1.29 0.4,-2.71 -3.78,0.42 0.68,1.1 -6.05,1.83 -0.11,0.26 -0.11,0.47 -0.11,0.51 -0.04,0.98 0.09,0.08 0.11,0.05 -2.96,0.56 -3.2,1.32 -4.51,1.84 -2.38,0.93 -2.75,-0.64 -3.83,0.66z"/>
   <path class="fil10" d="M2.93 220.32l0 1.61c-0.53,1.38 -0.4,0.77 -0.4,2.42 1.08,0.44 0.36,0.06 0.96,1.05l0.27 0.54c0.04,0.08 0.09,0.19 0.13,0.28l0.77 1.65c0.75,1.38 0.13,0.93 1.1,1.32 0.41,1.52 -0.11,0.56 0.81,0.41l2.02 1.61c1.11,-0.47 -1.73,-1.41 1.34,-3.54 1.54,-0.58 1.29,-0.06 2.51,-0.38 2.68,-0.71 -1.16,0.48 0.85,-0.36 0.1,-0.04 0.18,-0.11 0.29,-0.15 0.11,-0.05 0.2,-0.11 0.32,-0.15 1.94,-0.64 3.2,0.29 3.72,0.03 -0.23,-2.18 -0.69,-4.28 -1.77,-5.94 -0.06,-0.09 -0.14,-0.21 -0.18,-0.27 -0.04,-0.06 -0.13,-0.19 -0.17,-0.27 -0.04,-0.07 -0.12,-0.19 -0.16,-0.27 -0.14,-0.25 -0.23,-0.41 -0.44,-0.81 -1.88,-3.68 -0.65,-1.33 -2.79,-4.03 0.65,3.55 0.58,3.07 -3.94,3.71 -2.25,0.32 -1.26,0.62 -1.66,1.48 -2.84,0.24 -2.54,0.61 -4,-1.06l0.42 1.12z"/>
   <path class="fil11" d="M3.2 113.79c0.22,1.68 0.7,3.25 1.68,4.04 0.11,1.65 0.23,0.8 -0.73,1.03l1.33 2.47c0.05,0.09 0.11,0.18 0.17,0.27 0.73,1.07 -0.14,0.24 0.92,1.07 -1.43,-2.11 -0.57,-0.45 0.4,-1.21 0.79,1.46 0.36,1.44 1.75,2.34 0.14,-2.74 -1.27,-1.53 -1.04,-4.07 3.58,-0.3 2.83,0.22 5.32,-1.5 2.89,-2 3.25,0.43 4.65,0.28 0.35,-1.24 -0.26,-1.07 0.8,-1.49 -0.88,-0.51 -0.15,0.11 -0.51,-0.89 -1.01,-2.81 -0.5,-2.91 -1.69,-3.15l-1.05 -1.08c-0.07,-0.09 -0.12,-0.18 -0.18,-0.27 -0.96,-1.48 0.06,-0.67 -2.25,-3.41l0.13 3.05c-2.36,0.13 -1.37,-0.24 -3.11,-0.65 -3.18,2.22 -0.37,2.55 -6.63,2.33l0.04 0.83z"/>
   <path class="fil12" d="M12.21 261.88c0.32,1.86 -0.59,0.84 0.81,1.21 0.44,1.09 0.06,0.36 1.05,0.97l4.6 1.46 -0.09 13.32c1.26,-0.95 0.9,-3.53 0.81,-6.09l0.16 5.68c0.83,-0.38 0.84,-1.14 1.54,-1.91l1.61 0.17c-1.45,0.16 -1.21,0.58 -1.21,-0.67 1.02,-2.64 0.4,-6.7 0.4,-9.68 1.37,-0.5 0.4,-0.39 2.16,-1.47l6.1 -4.8c0.77,-0.72 0.44,-0.64 1.43,-0.99l0 -2.02c-1.12,0.35 -0.49,-0.23 -1.21,0.66 -0.5,1.43 -1.73,1.61 -2.42,2.99 -1.58,-0.95 0.47,-0.57 -1.21,-0.98 -1.6,1.06 -3.57,2.17 -5.82,1.97l-0.21 -7.85c-0.46,3.9 -0.61,-2.55 -1.07,7.05l-3.93 0.48c-0.01,1.06 0.16,1.58 0.53,2.13 -1.74,-0.35 -2.19,-1.07 -4.03,-1.61z"/>
   <path class="fil13" d="M23.1 246.95c-0.29,0.47 -0.18,0.01 -0.33,0.88 -0.1,0.56 -0.07,0.96 -0.07,1.53l1.46 1.33c2.74,-0.54 4.22,-2.38 8.53,-3.8l1.5 -0.53c2.07,-1.2 -0.25,-1.07 3.19,-2.17 -0.04,1.52 -1.23,4.57 -1.77,5.74 -0.53,1.14 -2.25,3.72 -2.42,4.77 -1.61,0.04 0.26,-0.82 -2.41,-0.88 -2.42,-0.06 -1.46,1.09 -5.8,2.34 -2.34,0.67 -0.69,0.69 -2.68,1.32 -0.81,-1.74 -0.23,-0.34 -0.87,-1.04l0.19 3.15c0.58,0.2 0.26,0.17 1.04,0.18 0.35,0 0.8,-0.06 1.3,-0.17 1.22,-0.28 1.48,-0.42 2.41,-0.89 2.67,-1.36 1.91,-0.71 3.99,-0.99 0.72,-0.89 0.09,-0.32 1.21,-0.66 1.09,0.18 0.51,0.21 1.43,-0.56 0.06,-0.05 0.15,-0.14 0.2,-0.2 1.51,-1.41 1.56,-2.01 2.53,-3.95l0.27 -0.54c0.04,-0.08 0.09,-0.19 0.14,-0.27l0.79 -1.63c0.04,-0.1 0.07,-0.2 0.11,-0.3 0.03,-0.1 0.06,-0.21 0.09,-0.31 1.68,-5.17 0.12,-4.13 1.7,-4.76l-0.22 -2.66 -10.5 4.05c-1.47,0.64 -2.2,0.92 -3.4,0.27 -0.19,0.59 -0.53,1.25 -0.81,1.97 -1.23,-0.8 -1.6,1.13 -0.81,-1.21z"/>
   <path class="fil10" d="M21.43 256.43c0.64,0.7 0.07,-0.7 0.87,1.04 1.99,-0.63 0.34,-0.65 2.68,-1.32 4.34,-1.24 3.38,-2.4 5.8,-2.34 2.67,0.07 0.8,0.93 2.41,0.88 0.17,-1.06 1.89,-3.63 2.42,-4.77 0.54,-1.17 1.74,-4.22 1.77,-5.74 -3.44,1.09 -1.13,0.97 -3.19,2.17l-1.5 0.53c-4.31,1.42 -5.79,3.26 -8.53,3.8l-1.46 -1.33c-1.33,0.03 -0.69,-0.01 -0.85,-1.55 -0.06,-0.54 0.04,-2.2 0.04,-2.87 0.01,-1.75 0,-3.5 0,-5.25 -0.01,1.4 -0.21,8.33 -0.03,9.13 0.54,2.35 -0.41,-1.25 0.7,1.24 0.04,0.09 0.11,0.19 0.14,0.28 0.68,2.18 -1.28,0.65 -1.28,6.09z"/>
   <path class="fil11" d="M22.61 276.32c0.02,2.05 -0.57,2.11 -0.64,3.56l0.1 3.4c2.79,0.34 4.16,-0.14 5.7,-1.41 2.05,-1.68 2.8,-1.5 5.01,-2.57 0.63,0.66 0.53,0.53 0.81,1.41l1.71 -2.44c0.08,-0.07 0.21,-0.16 0.31,-0.24 0.71,0.1 0.74,1.54 0.81,-1.21l0.81 0c0,-1.65 0.13,-1.04 -0.4,-2.42 0.09,-1.26 0.19,-1.32 0.4,-2.38 -2.34,0.38 -2.43,0.56 -3.74,1.86 -1.26,1.25 -1.7,0.94 -3.72,1.49 -1.71,0.46 -2.12,1.15 -3.53,1.77 -2.44,1.08 -2.19,-0.22 -3.62,-0.81z"/>
   <path class="fil14" d="M1.22 106.53c-0.82,2.73 0.11,4.97 0.6,7.16l0.39 1.22c0.15,0.45 0.29,0.98 0.48,1.54 0.03,0.1 0.07,0.21 0.1,0.3 0.04,0.09 0.07,0.2 0.11,0.29l1.23 1.81c0.96,-0.23 0.84,0.62 0.73,-1.03 -0.98,-0.79 -1.46,-2.35 -1.68,-4.04 -0.05,-0.06 -0.11,-0.23 -0.13,-0.18l-0.68 -1.55c-0.25,-1.13 -0.19,-1.61 -0.04,-2.5 3.98,-1.6 6.42,-0.86 7.9,-1.84l0.78 -1.79c0.8,0.65 1.02,0.95 1.59,1.81 1.82,-1.4 0.69,0.82 0.4,-1.21 -0.17,-0.86 -0.11,-0.34 -0.44,-0.79l-2.49 -2.74c-0.07,-0.05 -0.18,-0.1 -0.25,-0.15 -0.07,-0.05 -0.17,-0.11 -0.24,-0.17 -1.19,-0.91 -0.83,-1.18 -2.55,-2.3 -0.04,-0.03 -0.75,-0.45 -0.76,-0.45 -0.7,-0.71 -0.48,1.42 -0.55,-1.47l-1.31 0c0.97,1.34 0.52,1.29 0.57,2.45 0.02,0.49 0.05,0.77 0.05,1.29 -1.96,0.06 -2.55,-0.24 -3.73,-0.33l-0.1 4.66z"/>
   <path class="fil15" d="M10.6 207.01c0.32,1.86 -0.59,0.84 0.81,1.21 0.55,1.37 -0.46,0.22 1.88,1.35l1.06 0.55c1.89,1.26 0.27,1.33 4.32,1.33l-0.81 12.91c0,-2.72 -0.18,-2.17 -0.81,-2.42 -0.06,-2.79 0.1,-1.33 -1.21,-1.21 1.08,1.66 1.54,3.76 1.77,5.94 1.38,1.01 -0.07,0.65 1.92,0.67 0.94,-3.86 0.08,-14.15 -0.41,-19.09 -0.17,-1.69 -0.36,-3.86 -0.67,-5.49 -1.71,0.06 -3.37,2.58 -6.61,2.69l0.08 1.97c-0.65,-0.44 -0.12,-0.18 -1.32,-0.4z"/>
   <path class="fil14" d="M1.31 267.93c-0.43,1.12 -0.56,1.88 -0.44,3.24 0.1,1.09 0.08,0.62 0.31,1.32l0.24 0.57c0.03,0.1 0.07,0.2 0.1,0.3 0.03,0.11 0.06,0.21 0.08,0.32 0.64,2.74 0.33,4.17 1.72,4.73l0 1.61 1.21 0c-0.34,-1.82 -0.08,-0.57 -0.81,-2.3 -1.06,-2.54 -2.18,-5.77 -1.32,-6.7 0.1,-0.05 0.26,-0.21 0.32,-0.11l2.83 -0.41c0.04,-0.01 1.08,-0.42 1.14,-0.45l1.27 -0.73c0.06,-0.05 0.16,-0.13 0.22,-0.18 0.06,-0.06 0.14,-0.14 0.19,-0.2 2.02,-2.17 0.79,-2.2 3.83,-1.13l0 -1.51c-2.36,-0.85 -3.58,-4.54 -5.9,-4.84 -0.1,0.07 -0.44,0.72 -1.74,0.05 -1.31,-0.68 -0.6,-0.4 -0.59,-0.86 0.98,2.47 0.95,4.61 -2.66,2.93l0 4.33z"/>
   <path class="fil16" d="M21.9 195.3l0.06 -9.62c0.38,-1.1 -0.36,-0.43 0.74,-0.87 0.72,-1.78 -0.37,-0.18 1.52,-0.9l1.71 -1.11c1.84,-1.83 1.21,-0.4 4.25,-3.42 1.82,-1.81 1.11,-1.85 2.18,-3.07l1.64 -1.18 0 -2.02 -0.55 0.53c-0.06,0.06 -0.19,0.17 -0.26,0.24 -3.28,3.06 -3.57,2.57 -9.11,4.32 -4.36,1.38 -3.02,10.42 -3.17,16.32 -0.01,0.57 -0.12,2.42 -0.12,2.46 0.53,3.03 0.25,1.05 1.51,1.94 1.05,-3.32 1.4,-2.77 -0.4,-3.63z"/>
   <path class="fil17" d="M0.91 240.72l0.07 4.56c0.38,1.1 -0.36,0.43 0.74,0.87l0 2.42 1.21 0c-0.11,-1.52 -0.57,-2.65 -0.79,-4.48 8.1,1.61 -0.8,-1.45 8.79,-1.66l0.87 -1.45c0.18,0.51 2.18,3.23 2.67,3.98 0.59,0.89 0.7,1.15 1.08,2.13l1.49 2.54c0,-2.3 0.03,-1.94 -0.93,-3.77l-0.95 -1.88c-0.04,-0.08 -0.09,-0.19 -0.13,-0.27l-0.39 -0.82c-0.36,-0.67 -0.17,-0.43 -0.63,-0.99 -0.88,-1.08 -0.67,-0.24 -1.68,-1.96l-1.53 -2.11c-0.06,-0.06 -0.14,-0.14 -0.21,-0.2l-1.51 -1.19c-0.82,0.88 -0.61,0.18 -1.45,1.94l-0.29 0.65c-1.61,-0.1 -2.87,0.07 -4.09,0.3 -2.11,0.39 -1.22,0.05 -2.37,1.36z"/>
   <path class="fil14" d="M0.83 51.65l0.09 5.65 1.2 0 0 -2.33c2.83,-0.04 8,-0.87 7.64,-4.54 1.82,2.99 2.81,2.27 2.9,2.26l0.77 -0.24c-0.48,-0.55 -0.55,-0.57 -0.76,-0.77 -0.27,-0.27 -0.6,-0.59 -0.87,-0.86 -1.08,-1.07 -3.97,-3.57 -4.42,-4.83l-1.62 0.4c-1.41,-0.34 -1.23,-0.16 -1.5,-0.81 2.05,3.13 -0.27,3.67 -2.87,2.97l-0.55 3.08z"/>
   <path class="fil5" d="M25.93 54.07c-1.45,2.11 -0.58,0.45 0.4,1.21l1.71 -1.99c0.35,0.81 -0.15,1.09 2.09,0.56 1.15,-0.28 1.84,-0.84 2.77,-1.3 1.61,-0.79 1.88,-0.35 3.36,-0.83 0.86,-0.28 0.5,-0.24 1.09,-0.74 0.19,-0.16 0.41,-0.37 0.71,-0.59l0.96 -0.58 -0.55 2.58 0.25 0.86 0.93 0 0 -4.04c0.83,-0.33 1.05,0.25 0.85,-1.95 -0.12,-1.25 -0.41,-0.87 -0.85,-2.08 -0.09,0.03 -0.21,0.03 -0.25,0.15l-0.82 0.39c-1.42,0.47 -1.66,0.03 -3.27,0.77 -1.96,0.89 -1.36,1.12 -2.41,1.63 -1.74,0.84 -1.05,-0.47 -3.54,2.11 -0.89,0.92 -3.22,2.76 -3.43,3.84z"/>
   <path class="fil18" d="M27.95 240.49l-1.12 1.61c1.12,-0.04 0.67,-0.35 1.52,0.82 2.39,-0.02 8.44,-3.16 10.68,-4.19l-0.4 3.14c1.12,-0.07 1.03,0.82 1.03,-2.99 1.32,-0.53 0.81,0.27 0.81,-4.84 -0.88,0 -1.02,-0.05 -1.85,0.16l-3.28 1.16c-0.6,0.2 -1.24,0.35 -1.85,0.57l-1.37 0.65c-1.46,0.87 -0.97,0.99 -2.43,2.01 -1.59,1.12 -0.57,-0.75 -1.32,1.1 -1.53,0.41 -0.56,-0.11 -0.41,0.81z"/>
   <path class="fil14" d="M26.74 160.75c-1.69,0.33 -0.07,-0.28 -0.96,0.9l-2.95 4.59c-0.26,2.35 -0.32,0.4 1.08,1.21 0.37,-1.29 -0.04,-1.13 0.85,-1.94 1.48,0.93 5.71,-0.74 7.23,-1.29 0.1,-0.03 0.2,-0.07 0.3,-0.1l2.96 -1.09c1.4,-0.49 1.76,-1.02 3.04,-1.57 -0.19,1.87 -0.23,-0.57 -0.66,2.38 1.68,-0.44 1.21,0.51 1.21,-2.42l0.81 0c0,-5.55 -0.23,-3.22 0.81,-4.04 -1.92,-0.44 -1.6,-0.22 -2.92,0.71 -0.89,0.63 -6.88,3.59 -8.37,3.78l-0.81 -1.83c-0.63,1.47 0,0.73 -1.61,0.72z"/>
   <path class="fil14" d="M0.51 79.09c0.63,1.62 0.38,1.48 0.38,3.27 0,2.7 0.27,2.15 0.83,2.38l0 2.42 1.21 0c-0.13,-1.89 -0.81,-3.39 -0.81,-5.63 3.27,0.07 6.97,-1.51 9.06,-3.28 0.5,2.4 -0.17,0.39 1.03,1.24l0 -1.61c-1.97,-1.87 -1.61,-1.97 -3.81,-3.46 -1.22,-0.83 -0.97,1.03 -1.04,-1.79l-1.46 0c0.82,0.92 -1.01,0.16 0.94,0.81 -0.74,0.76 -1.02,0.27 -1.41,0.4 -0.42,1 -0.45,1.91 -0.9,2.82 -1.57,0.1 -2.03,0.3 -3.13,-0.3 -0.25,1.91 0.3,0.97 -0.9,2.73z"/>
   <path class="fil19" d="M8.71 123.8l1.34 1.41c1.34,0.94 0.7,0.06 1.76,1.65 0.07,-0.1 0.13,-0.4 0.15,-0.33l4.53 -3.52c1.13,-0.42 1.04,-0.01 2.24,-0.61 0.1,-1.63 0.39,-1.37 -0.45,-2.55l-0.64 -1.33c-1.4,0.15 -1.76,-2.28 -4.65,-0.28 -2.49,1.72 -1.74,1.2 -5.32,1.5 -0.23,2.54 1.18,1.33 1.04,4.07z"/>
   <path class="fil20" d="M25.12 271.56l3.75 -3.67c-0.41,1.34 -0.49,0.7 -0.51,2.42 1.33,-0.2 9.71,-4.48 10.66,-5.32 0.59,3.02 -0.31,-0.01 -0.17,2.94 1.58,-0.64 0.24,0.26 0.83,-1.18 0.05,-0.12 0.15,-0.49 0.19,-0.62 0.79,-2.26 0.59,-2.09 0.59,-4.66 -0.76,0 -2.11,-0.08 -2.81,0.02 -0.93,0.13 -0.6,0.13 -0.96,0.25l-2.41 0.82c-0.09,0.03 -0.2,0.07 -0.29,0.11 -0.09,0.04 -0.19,0.08 -0.28,0.12 -0.09,0.04 -0.19,0.09 -0.27,0.13 -0.11,0.06 -0.42,0.22 -0.52,0.29l-5.96 4.94c-0.88,0.9 0.21,-0.01 -0.82,0.79 -0.62,0.49 -0.16,0.3 -1.01,0.61l0 2.01z"/>
   <path class="fil21" d="M10.99 154.14c0.39,0.4 0.77,0.84 1.25,1.19l1.85 0.97c0.16,0.08 0.49,0.26 0.8,0.41 0.09,0.04 0.19,0.09 0.27,0.13 3.16,1.38 2,-0.41 2.7,1.33l0.64 12.91c-1.89,0.01 -0.11,-0.16 -0.83,0.81 0.92,2.02 -0.04,0.99 1.56,1.78 0.65,-2.62 0.67,-8.93 0.54,-11.88 -0.04,-1.08 -0.88,-9.88 -1.51,-10.92 -3.51,-0.04 -0.8,0.55 -5.32,1.57l0.43 2.1c-0.35,-0.18 -0.91,-0.7 -0.96,-0.71 -1.94,-0.55 -0.56,-0.62 -1.42,0.3z"/>
   <path class="fil22" d="M18.58 278.83l-0.72 -0.18c0.16,1.7 0.42,1.79 0.66,2.91 0.39,0.51 0.22,0.08 0.47,0.94 0.11,0.38 0.17,1.04 0.22,1.46 0.15,2.63 -0.18,3.75 -0.57,6.22 -0.06,0.35 -0.09,0.69 -0.17,1.01 -0.38,1.5 0.38,-0.09 -0.29,0.77l-3 -1.27c-1.2,-0.47 -2.26,-1.3 -3.08,-1.69 -0.8,-0.42 -0.72,-0.38 -1.5,-0.95 0.31,0.92 0.1,0.42 0.59,1.08 0.37,0.49 0.65,0.72 1.04,0.99l2.13 1.1c3.34,1.67 4.25,0.54 4.31,3.36l2.42 0c0.02,-0.06 0.1,-1.1 2.15,-2.28l1.94 -1.33c0.06,-0.06 0.18,-0.16 0.23,-0.21 0.05,-0.04 0.15,-0.14 0.23,-0.21 -0.54,-0.36 -0.1,-0.41 -1.07,-0.19 -1.53,0.35 -0.66,1.19 -3.19,2.15 0.89,-2.49 0.11,-2.73 -0.07,-5.15 0.41,-4.06 -0.68,-5.75 0.66,-7.47 0.07,-1.45 0.66,-1.51 0.64,-3.56l0.09 0.36 -1.61 -0.17c-0.69,0.77 -0.71,1.53 -1.54,1.91l-0.16 -5.68c0.08,2.56 0.44,5.14 -0.81,6.09z"/>
   <path class="fil21" d="M21.89 220.83l0.54 -8.85 2.07 -1.16c1.64,-1.21 1.87,-0.97 3.45,-2.6l2.03 -2.03c1.07,-1.12 0.22,0.2 0.97,-1.21 0.29,-1.65 0.68,-0.22 -0.18,-1.08 -2.26,0.56 -2.9,0.26 -4.81,1.15 -1.19,0.55 -0.75,0.52 -1.83,0.92 -0.42,0.16 -0.53,0.15 -0.95,0.28 -0.19,0.06 -0.58,0.33 -0.65,0.22 -0.06,-0.1 -0.22,0.06 -0.32,0.12 -1.36,2.06 -1.23,6.36 -1.28,9.28 -0.03,2.06 0.12,3.08 -0.14,5.25 -0.62,5.25 0.73,4.02 1.48,4.44 2.44,-5.53 -0.81,-0.93 -0.4,-4.73z"/>
   <path class="fil13" d="M2.93 220.32l-0.42 -1.12c1.46,1.67 1.16,1.3 4,1.06 0.4,-0.86 -0.59,-1.16 1.66,-1.48 4.51,-0.64 4.58,-0.16 3.94,-3.71 2.14,2.71 0.91,0.36 2.79,4.03 0.2,0.4 0.29,0.56 0.44,0.81 0.05,0.08 0.12,0.19 0.16,0.27 0.05,0.07 0.14,0.21 0.17,0.27 0.04,0.06 0.12,0.18 0.18,0.27l0.48 -2.81c-1.93,-0.76 -0.08,0.27 -1.19,-1.33 -1.1,-1.59 -1.34,-1.23 -2.83,-3.24l-0.62 -0.81c-0.05,-0.07 -0.14,-0.2 -0.23,-0.28 0.17,2.03 1.4,-0.19 -0.39,1.13l-2.16 -2.35 -0.05 3.09c-2.34,1.1 -4.15,1.99 -6.74,2.16 -0,1.41 -0.21,3.33 0.8,4.04z"/>
   <path class="fil23" d="M0.11 213.86c0.42,0.33 0.79,-0.32 0.86,2.39 0.03,0.97 -0.06,2.23 -0.06,3.26l0.81 2.42 1.21 0 0 -1.61c-1.01,-0.7 -0.81,-2.63 -0.8,-4.04 2.59,-0.17 4.4,-1.06 6.74,-2.16l0.05 -3.09 2.16 2.35c1.79,-1.32 0.56,0.89 0.39,-1.13 -0.44,-1.37 0.02,-0.27 -0.85,-1.21 -0.42,-0.46 -0.89,-0.87 -1.43,-1.42l-0.79 -0.82c-0.08,-0.09 -0.31,-0.33 -0.39,-0.42 -0.15,-0.14 -0.55,-0.5 -0.65,-0.56 -0.45,-0.27 0.25,-0.27 -1.19,-0.42l0.41 0.81c-1.22,2.15 -2.83,3.39 -5.25,2.43l0 2.41c-0.51,0.4 -0.54,0.8 -1.21,0.81z"/>
   <path class="fil12" d="M22.8 168.67l-0.91 0 0.81 -10.49c0.52,-1.29 -0.52,0.07 0.64,-0.57 0.61,-0.33 0.42,-0.11 0.87,-0.35 0.08,-0.04 0.2,-0.08 0.28,-0.13l1.02 -1c0.43,-0.4 0.07,-0.09 0.68,-0.53 0.07,-0.05 0.18,-0.1 0.25,-0.15l1.71 -1.52c0.99,-1.01 3.72,-4.16 5.04,-4.64l0 -2.01c-0.1,0.08 -0.24,0.08 -0.29,0.26l-5.34 5.39c0.7,-1.87 -0.4,-1.35 -0.43,-1.39 -2.26,0.1 -4.26,1.22 -5.6,2.17 -0.78,4.62 -0.85,13.37 -0.45,18.18 2.08,-0.82 0.73,0.52 1.59,-1.37 0.28,-0.62 0.17,-1.14 0.12,-1.85z"/>
   <path class="fil24" d="M26.73 214.67c-1.3,2.32 -0.49,0.44 0.4,1.21l1.65 -2.03c0.77,1.07 0.06,2.13 4.45,0.09 1.84,-0.86 3.87,-1.48 5.61,-2.21l-0.13 3.58c0.4,-2.38 -0.34,0.21 0.94,-1.03 0,-1.5 -0.14,-2.08 0.28,-3.35 0.32,-0.97 0.53,0.11 0.53,-3.52 -1.45,0 -2.51,-0.2 -3.78,0.25l-2.13 1.1c-0.08,0.04 -0.19,0.09 -0.27,0.13l-3.78 1.87c-0.88,0.51 -3.57,2.96 -3.75,3.91z"/>
   <path class="fil25" d="M182.58 78.28c-0.52,-0.28 0.55,-0.13 -0.9,-0.37l-19.76 -0.11c-3.5,0 -7,-0 -10.49,-0l-9.26 0.01c-2.72,-0.41 -2.07,-2.18 -2.05,-5.59l-0.01 -18.96c0,-29.72 -2.7,-25.13 9.71,-25.24 3.37,-0.03 6.72,-0.08 10.09,-0.1 4.36,-0.03 16.93,-0.3 20.18,0.55 -0.43,-1.39 1.44,-1.06 -4.03,-1.04l-35.51 0c-0.28,1.05 0.15,0.45 -0.81,0.81l0 49.23c1.05,0.28 0.45,-0.15 0.81,0.81l42.05 0z"/>
   <path class="fil24" d="M26.74 160.75c1.62,0 0.98,0.74 1.61,-0.72l0.81 1.83c1.49,-0.19 7.48,-3.15 8.37,-3.78 1.32,-0.92 1,-1.15 2.92,-0.71l0 -4.03c-2.32,0 -1.57,0.22 -3.02,0.61 -1.55,0.43 -1.27,-0.1 -3.19,0.84l-1.33 0.68c-0.11,0.06 -0.44,0.2 -0.55,0.26 -2.06,1.11 -0.35,0.66 -3.74,2.71l-1.3 1.14c-0.51,0.71 -0.28,0.12 -0.59,1.16z"/>
   <path class="fil26" d="M22.7 114.37l-1.21 0.23 1.35 0.56c1.08,-1.3 1.45,0.27 3.83,-0.66 1.31,-0.52 1.54,-1.28 4.51,-1.84 -0.02,0.03 -0.15,0.93 -0.11,-0.05 0,-0.03 0.01,-0.25 0.11,-0.51 6.73,-0.74 2.27,-1.42 6.05,-1.83 -0.04,1.42 -0.29,1.09 -0.4,2.71 1.68,-0.44 1.21,0.51 1.21,-2.42 1.29,-0.52 0.55,0.9 0.84,-1.55 0.11,-0.89 -0.01,-1.57 0.15,-2.73 -1.31,-0.47 -5.03,1.41 -6.6,2.32 -0.95,0.55 -0.63,0.54 -1.65,1.11 -2.71,1.53 -2.97,1.67 -5.65,1.63l-0 0.03c-1.12,0.57 -0.55,0.48 -1.22,1.54 -0.64,1.01 -0.37,0.68 -1.2,1.46z"/>
   <path class="fil23" d="M26.73 214.67l-2.21 2.63c-0.62,0.48 -0.18,0.29 -1.01,0.59l0 2.82c0.94,-0.95 0.6,1.2 0.81,-1.16l7.81 -1.57c0.07,-0.03 2.97,-2.43 6.28,-2.59 -0.31,1.76 -0.32,-0.02 -0.77,2.49 1.68,-0.44 1.21,0.51 1.21,-2.42 1.49,-0.39 0.38,0.53 0.81,-1.21 -1.27,1.24 -0.54,-1.34 -0.94,1.03l0.13 -3.58c-1.74,0.74 -3.77,1.36 -5.61,2.21 -4.39,2.04 -3.68,0.98 -4.45,-0.09l-1.65 2.03c-0.89,-0.77 -1.7,1.11 -0.4,-1.21z"/>
   <path class="fil27" d="M1.16 160.59c0.91,0.31 0.75,0.29 1.6,1.42 0.04,0.05 0.1,0.17 0.16,0.25l7.44 -2.6c0.08,-0.09 0.27,-0.37 0.36,-0.46l0.76 -0.76c0.08,-0.07 0.2,-0.17 0.31,-0.25 -1.23,-1.41 -2.21,-3.01 -3.88,-3.23 -0.59,0.48 0.6,1.3 -1.83,-0.26 -0.7,-0.45 -0.88,-0.64 -1.47,-1.16l-0.02 2.79 -3.28 -0.39c0,1.64 -0.2,3.58 -0.15,4.65z"/>
   <path class="fil4" d="M0.11 187.23c1.11,0.88 0.59,-1.17 0.86,1.99 0.05,0.59 -0.06,2.13 -0.06,2.85l1.21 0 -0.2 -3.26 8.3 -2.99c2.65,0.06 -2.17,-0.74 1.08,0.24 0.14,0.04 0.77,0.32 0.9,0.36 -1.17,-1.07 -0.65,-0.79 -1.09,-1.61 -0.04,-1.88 0.33,0.14 -0.92,-1.2 -1.37,-1.45 0.69,-0.46 -1.22,-1.23l0 -0.81 -1.34 0c-0.72,0.91 0.67,0.86 -1.02,0.72 -0.79,-0.9 -0.61,-0.79 -1.62,-1.52l-0.05 2.01c-1.54,0.07 -2.28,-0.1 -3.62,0.44 -0.01,2.58 0.36,2.89 -1.22,4.01z"/>
   <path class="fil20" d="M26.4 79.89c0.1,0.06 0.29,-0.04 0.35,0.09 0.74,2.05 0.52,0.15 0.6,0.2 0.05,0.03 0.18,0.08 0.23,0.11 1.3,0.83 -1.65,2.59 5.23,-0.41l6.4 -3.59c0.76,3.18 -1.47,1.91 -0.08,4.41 0.93,-0.61 0.52,-0.99 0.52,-4.03 1.1,-0.44 0.81,1.28 0.81,-4.04 -1.89,0 -2.24,0.32 -4.25,1l-9.81 6.27z"/>
   <path class="fil24" d="M25.12 136.79l3.77 -3.73c0.65,1.38 -0.41,0.86 1.46,1 2.04,0.16 3.61,-1.52 5.67,-2.47 1.08,-0.5 2.31,-1.5 3.06,-1.63 0.04,-0.01 0.62,0.7 0.93,-0.78 0.38,-1.81 0.23,-1.29 -0.36,-2.47 -0.2,-1.31 0.21,-0.43 -0.81,-0.81 -0.61,1.51 0.13,0.22 -3.97,1.68 -1.66,0.59 -0.73,0.72 -3.02,1.83 -2.1,1.01 -1.3,0.29 -2.91,1.93l-1.4 1.43c-0.75,0.77 -1.3,1.61 -2.42,2.01l0 2.02z"/>
   <path class="fil28" d="M2.86 139.62c-1.52,-1.66 -0.34,-0.52 0.47,-1.21 0.6,0.83 2.78,0.48 4.04,0.45 0.8,-2.93 0.08,-0.07 2.75,-3.31 1,-1.21 1.3,-0.84 1.7,-1.58 0.3,0.26 0.91,0.31 1.19,0.4 0,-1.23 0.29,-1.61 -0.41,-2.01l-1.11 0.28c-0.93,-0.04 -2.55,-1.98 -2.88,-2.7l-0.14 3.13c-1.66,-0.08 -2.09,-1.3 -3.96,-0.34 -1.66,0.86 0.58,-0.05 -2.56,2.03 0.23,1.8 -0.52,3.87 0.89,4.87z"/>
   <path class="fil13" d="M23.11 273.58c-0.68,0.6 -0.41,1.14 -0.41,2.42l-1.21 0c0,1.25 -0.24,0.83 1.21,0.67l-0.09 -0.36c1.43,0.59 1.18,1.89 3.62,0.81 1.41,-0.62 1.83,-1.31 3.53,-1.77 2.02,-0.55 2.46,-0.23 3.72,-1.49 1.31,-1.3 1.4,-1.48 3.74,-1.86 -0.22,1.06 -0.32,1.12 -0.4,2.38 1.73,-0.3 1.63,-0.34 0.81,-2.42l-0.15 -3.53c-0.98,0.45 -0.79,0.64 -1.51,1.06 -1.32,0.76 -0.89,0.23 -2.12,0.76 -0.81,0.35 -1.89,1.41 -3.18,1.98 -4.17,1.85 -3.85,1.12 -5.76,1.11l-0.84 0.26c-0.06,0.01 -0.23,0.01 -0.28,0.02 -0.06,0.01 -0.28,0.09 -0.33,-0.01 -0.05,-0.12 -0.26,0.04 -0.35,-0.03z"/>
   <path class="fil24" d="M25.93 108.14c-1.12,2.32 -0.43,0.44 0.4,1.21 2.25,-4.07 2.35,-1.78 5.84,-3.42 1.11,-0.52 5.81,-2.23 7.18,-2.46 -0.01,2.05 -0.41,1.61 -0.33,2.8 0.52,-0.05 0.63,0.74 0.63,-2.17 1.1,-0.44 0.81,1.28 0.81,-4.04 -4.47,0 -3.31,-0.41 -6.46,1.21l-4.33 2.53c-0.07,0.05 -0.18,0.1 -0.26,0.15 -0.08,0.05 -0.19,0.1 -0.26,0.14l-2.25 1.8c-0.8,0.85 -0.97,1.09 -0.98,2.24z"/>
   <path class="fil23" d="M26.4 79.89c-0.84,0.63 0.49,-0.77 -0.6,1.07 -0.94,1.59 -1.62,1.47 -2.13,2.73 -0.28,0.7 -0.3,1.76 -0.96,2.68 -0.59,0.84 0.25,0.36 -0.82,0.79l0 -8.96c-0.01,1.5 -0.01,3.01 0.01,4.52 0.03,3.04 -0.03,2.34 -0.81,5.02 1.3,-0.57 0.36,-0.14 1.92,-0.36 0.37,-0.35 1.08,-0.72 1.31,-2.42 3.22,0.19 2.86,-0.18 7.99,-2.69 0.84,-0.41 5.33,-2.83 5.89,-1.49 0.48,1.16 0.17,0.04 -0.28,1.53 -0.82,2.68 0.09,-1.44 -0.28,0.82 1.95,0 0.88,-0.19 1.49,-2.42 -1.39,-2.49 0.84,-1.23 0.08,-4.41l-6.4 3.59c-6.89,3 -3.93,1.24 -5.23,0.41 -0.05,-0.03 -0.18,-0.09 -0.23,-0.11 -0.08,-0.04 0.14,1.85 -0.6,-0.2 -0.05,-0.14 -0.24,-0.04 -0.35,-0.09z"/>
   <path class="fil29" d="M21.97 279.88c-1.34,1.71 -0.25,3.4 -0.66,7.47 0.74,0.46 0.43,0.24 1.39,0.47 1.23,-0.8 0.93,-1.09 2.01,-1.68 3.01,-1.66 4.61,-0.25 7.18,-2.89l1.3 -1.18c1.13,0.31 0.45,0.93 0.81,-0.41 1.12,-0.45 0.49,-1.16 1.61,-1.61l0 -2.02c-0.1,0.08 -0.23,0.17 -0.31,0.24l-1.71 2.44c-0.28,-0.88 -0.18,-0.74 -0.81,-1.41 -2.22,1.07 -2.97,0.88 -5.01,2.57 -1.54,1.27 -2.91,1.74 -5.7,1.41l-0.1 -3.4z"/>
   <path class="fil14" d="M25.12 271.56c-1.13,-0.31 -0.45,-0.93 -0.81,0.41 -1.35,0.54 -0.25,-0.68 -1.21,1.62 0.09,0.07 0.3,-0.08 0.35,0.03 0.05,0.1 0.27,0.02 0.33,0.01 0.05,-0 0.22,-0.01 0.28,-0.02l0.84 -0.26c1.91,0 1.59,0.74 5.76,-1.11 1.29,-0.57 2.37,-1.63 3.18,-1.98 1.23,-0.53 0.81,0 2.12,-0.76 0.73,-0.42 0.54,-0.61 1.51,-1.06l0.15 3.53c1.89,0 1.01,0.27 1.28,-1.57 0.01,-0.08 -0.07,-2.14 -0.07,-2.47 -0.14,-2.95 0.76,0.09 0.17,-2.94 -0.95,0.84 -9.33,5.12 -10.66,5.32 0.02,-1.72 0.1,-1.08 0.51,-2.42l-3.75 3.67z"/>
   <path class="fil24" d="M25.93 188.84c-1.45,2.11 -0.58,0.45 0.4,1.21l4.12 -4.41c0.21,0.46 -0.63,2.33 4.47,0.07 0.97,-0.43 3.57,-1.89 4.73,-0.92 1.13,-0.44 0.77,0.39 0.86,-1.96 0.03,-0.82 -0.05,-2 -0.05,-2.88l-2.16 0.27c-0.1,0.03 -0.19,0.08 -0.29,0.12l-6.72 3.36c-2.68,1.71 -1.72,1.09 -4.17,3.52l-1.19 1.61z"/>
   <path class="fil14" d="M27.95 240.49c-1.54,0.41 -1.15,-0.99 -1.21,1.62 -1.16,0.42 -1.56,1.38 -2.95,3.51 -0.05,0.07 -0.11,0.17 -0.15,0.25l-0.54 1.08c-0.79,2.34 -0.42,0.41 0.81,1.21 0.28,-0.72 0.62,-1.39 0.81,-1.97 1.2,0.65 1.93,0.37 3.4,-0.27l10.5 -4.05 0.4 -3.14c-2.24,1.03 -8.29,4.16 -10.68,4.19 -0.85,-1.16 -0.4,-0.85 -1.52,-0.82l1.12 -1.61z"/>
   <path class="fil30" d="M3.2 113.79l-0.04 -0.83c6.26,0.22 3.45,-0.12 6.63,-2.33 1.74,0.4 0.74,0.78 3.11,0.65l-0.13 -3.05c2.32,2.74 1.29,1.93 2.25,3.41 0.06,0.09 0.11,0.18 0.18,0.27l1.05 1.08 -3.23 -6.45c0.28,2.03 1.41,-0.19 -0.4,1.21 -0.57,-0.86 -0.79,-1.16 -1.59,-1.81l-0.78 1.79c-1.48,0.99 -3.92,0.24 -7.9,1.84 -0.14,0.9 -0.21,1.37 0.04,2.5l0.68 1.55c0.01,-0.05 0.08,0.13 0.13,0.18z"/>
   <path class="fil31" d="M23.87 193.39c2.71,1.64 3.92,-0.02 6.57,-0.61 1.55,-0.34 3.24,0.22 5.05,-1.28 0.01,-0.01 0.84,-1.01 1.06,-1.27 1.33,0.33 0.68,-0.05 1.49,0.64l0.2 -0.42c0.18,-1.8 0.22,-3.2 0.9,-5.24 -0.83,0.77 -0.5,0.72 -1.67,1.41l-10.17 4.81c-2.22,0.67 -1.83,-0.81 -3.43,1.95z"/>
   <path class="fil32" d="M25.93 108.14c-0.1,0.08 -0.21,0.1 -0.25,0.28l-2.9 4.68c-0.1,0.57 -0.08,0.66 -0.08,1.27 0.83,-0.78 0.56,-0.44 1.2,-1.46 0.67,-1.06 0.1,-0.98 1.22,-1.54l0 -0.03c2.69,0.04 2.94,-0.1 5.65,-1.63 1.02,-0.57 0.7,-0.57 1.65,-1.11 1.57,-0.91 5.29,-2.79 6.6,-2.32 -0.08,-1.19 0.32,-0.75 0.33,-2.8 -1.37,0.22 -6.07,1.93 -7.18,2.46 -3.49,1.64 -3.59,-0.65 -5.84,3.42 -0.84,-0.77 -1.53,1.11 -0.4,-1.21z"/>
   <path class="fil4" d="M1.25 132.35c-0.46,1.42 -0.38,2.08 -0.39,3.66 -0.01,2.97 0.09,2.49 0.85,2.79l0 2.42 1.21 0 -0.07 -1.61c-1.42,-1 -0.66,-3.07 -0.89,-4.87 3.14,-2.08 0.9,-1.17 2.56,-2.03 1.87,-0.97 2.3,0.25 3.96,0.34l0.14 -3.13c0.33,0.72 1.95,2.67 2.88,2.7l1.11 -0.28 -5.25 -5.23c-0.45,-0.35 0.04,-0.26 -0.81,-0.42l-2.06 3.55 -3.18 0.41 -0.07 1.69z"/>
   <path class="fil33" d="M275.31 74.24l0 -1.61c-0.84,-0.3 -0.41,-0.08 -1.02,-0.59l-6.44 -6.47c-0.39,-0.39 -0.42,-0.42 -0.81,-0.81l-2.41 -2.44c-1.78,-1.74 -0.94,-0.01 -3.64,-2.82l-3.25 -2.4c-0.06,-0.06 -0.14,-0.15 -0.2,-0.2 -0.06,-0.06 -0.14,-0.14 -0.2,-0.2l-0.39 -0.42c-0.06,-0.06 -0.14,-0.14 -0.2,-0.2l-4.57 -3.5c-0.42,-0.23 -0.14,-0.01 -0.56,-0.24l-4.56 -3.91 -2.42 0 0 -1.61 -1.61 0c0.83,1.01 0.84,0.83 0.93,2.23 4.23,0.28 1.6,0.71 4.58,2.35 4.47,2.45 11.34,8.97 13.79,10.41l11.73 11.27c0.06,0.06 0.14,0.14 0.2,0.2 0.07,0.07 0.15,0.15 0.22,0.22 0.08,0.07 0.18,0.17 0.25,0.24l0.58 0.52z"/>
   <path class="fil34" d="M197.43 216.28l1.61 0c0.07,-0.07 0.17,-0.27 0.2,-0.21l1.84 -1.79c0.07,-0.05 0.17,-0.11 0.24,-0.16l1.07 -0.54c0.08,-0.04 0.19,-0.09 0.27,-0.13l5.12 -2.95c2.13,-1.23 0.16,-0.68 3.23,-2.42l0.51 -0.3c1.14,-0.79 1.94,-2.32 4.86,-4.42l2.71 -2.94c0.03,-0.05 1.09,-0.87 2,-2.44l5.24 -8.88c0.01,-0.02 0.26,-0.52 0.27,-0.54 0.04,-0.08 0.09,-0.19 0.14,-0.27l0.81 -1.61c0.17,-0.33 0.28,-0.56 0.41,-0.81 0.32,-0.64 -0.06,0.1 0.27,-0.54l0.89 -1.94c0.03,-0.1 0.05,-0.22 0.08,-0.32 0.58,-1.79 -0.65,-0.88 0.91,-1.51l0 -2.82c-1.21,1.56 -1.19,3.35 -2.66,6.17 -2.81,5.4 -5.64,11.59 -10.09,16.18 -2.88,2.98 -6.21,5.58 -9.27,8.09 -1.2,0.99 -3.74,2.48 -5.28,3.24 -1.02,0.5 -2.04,0.91 -2.84,1.57l-1.92 1.78c-0.09,0.08 -0.22,0.18 -0.3,0.25 -0.09,0.07 -0.22,0.16 -0.32,0.26z"/>
   <path class="fil35" d="M25.93 54.07l-3.59 5.65c0.06,0.7 -0.16,1.17 -0.41,2.42 1.32,-1.01 2.19,-3.07 2.79,-4.79 1.5,0.56 1.74,0.58 3.57,-0.04 0.93,-0.31 2.5,-1.01 3.51,-1.4l2.85 -1.58c1.19,-0.84 1.9,-0.92 3.73,-1.02l0.09 -0.91 0.55 -2.58 -0.96 0.58c-0.31,0.22 -0.53,0.43 -0.71,0.59 -0.6,0.5 -0.23,0.46 -1.09,0.74 -1.48,0.48 -1.75,0.04 -3.36,0.83 -0.92,0.45 -1.61,1.02 -2.77,1.3 -2.24,0.53 -1.73,0.25 -2.09,-0.56l-1.71 1.99c-0.98,-0.76 -1.85,0.9 -0.4,-1.21z"/>
   <path class="fil36" d="M25.93 188.84c-0.1,0.08 -0.21,0.1 -0.25,0.28l-2.55 3.76c0.15,0.72 -0.95,0.17 0.2,0.66 1.82,0.79 -0.19,0.51 0.55,-0.16 1.6,-2.75 1.21,-1.28 3.43,-1.95l10.17 -4.81c1.17,-0.69 0.84,-0.65 1.67,-1.41 -0.68,2.03 -0.72,3.44 -0.9,5.24l1.27 -2.16c0.29,-1.08 0.14,-2.36 0.14,-3.5 -1.16,-0.97 -3.76,0.49 -4.73,0.92 -5.1,2.25 -4.26,0.39 -4.47,-0.07l-4.12 4.41c-0.98,-0.76 -1.85,0.9 -0.4,-1.21z"/>
   <path class="fil37" d="M12.21 181.18l1.93 0.79c1.48,0.96 0.72,0.62 1.39,-0.65l0.45 -0.79c0.66,-0.8 1.67,-1.21 2.85,-1.29l-0.22 -3.37c-2.39,0.03 -1.05,0.7 -3.26,1.22 -1.15,0.27 -2.97,0.1 -4.25,0.16l0.32 2.81c-2.67,-1.43 -4.48,-5.36 -6.48,-6.64 0.02,1.23 -0.02,0.59 0.26,1.45l3.78 4.7c1.41,1.38 1.19,0.89 1.61,2.03l1.61 -0.4z"/>
   <path class="fil38" d="M21.31 287.34c0.18,2.42 0.96,2.65 0.07,5.15 2.53,-0.96 1.66,-1.8 3.19,-2.15 0.97,-0.22 0.53,-0.17 1.07,0.19 1.62,-0.2 0.53,-0.06 1.09,-0.42 0.02,-0.02 0.8,-0.73 0.84,-0.77l3.61 -3.66c1.38,-1.41 0.89,-1.2 2.03,-1.61l0 -2.01 -1.3 1.18c-2.57,2.64 -4.17,1.23 -7.18,2.89 -1.08,0.59 -0.78,0.88 -2.01,1.68 -0.96,-0.23 -0.64,-0.02 -1.39,-0.47z"/>
   <path class="fil28" d="M9.79 71.42c0.22,1.87 -0.36,1.25 0.81,0.81 2.04,0.4 0.68,0.15 2.08,0.88 0.88,-0.75 0.04,-0.27 0.94,-0.68 3.68,-1.69 2.69,-1.83 5.45,-1.82l0.52 -1.3 0.99 0c-0.58,-0.76 -0.2,-0.47 -1.1,-0.71l0 -3.23 -1.21 0 -0.33 1.53c-0.64,-0.77 -0.74,-0.51 -2.09,-0.66 -0.06,0.08 -0.09,0.21 -0.12,0.27l-0.42 0.74c-1.31,1.5 -3.27,0.22 -4.14,2.73 -0.55,1.57 0.5,1.09 -0.57,1.84 -0,-0.87 0.14,-0.01 -0.81,-0.4z"/>
   <path class="fil39" d="M57.64 326.85c-1.02,-0.98 -1.42,-0.77 -3.16,-0.15 -1.58,0.56 -2,0.24 -3.44,0.63 -1.5,0.41 -4.45,1.52 -6.42,0.26 -2.63,-1.69 -2.39,-2.9 -3.14,-4.64 -0.84,-1.96 -2.39,-3.11 -3.01,-4.98 0.74,-4.49 9.27,-6.8 8.98,-13.72l1.42 -0.44c0.11,-0.05 0.25,-0.13 0.34,-0.17 0.09,-0.04 0.24,-0.12 0.35,-0.19l-2.65 0c0,0.6 0.07,1.85 -0.04,2.38l-5.61 6.9c-0.06,0.06 -0.15,0.14 -0.2,0.2l-1.4 1.42c-0.27,0.28 -0.01,0.14 -0.6,0.61 -0.62,0.5 -0.19,0.29 -1.02,0.59l0 4.03c1.76,0.71 -0.43,-0.65 1.82,2.22 2.12,2.7 0.51,2.94 2.4,4.86l0.41 0.4c0.06,0.06 0.14,0.14 0.2,0.2 2.52,2.46 1.65,0.07 2.43,2.01l2.42 0c0.79,-1.96 -1.49,0.46 3.49,-1.35 1.25,-0.45 0.92,-0.15 2.19,-0.23 2.45,-0.16 1.13,0.3 1.59,-0.84l2.66 0z"/>
   <path class="fil20" d="M1.25 132.35l0.07 -1.69 3.18 -0.41 2.06 -3.55c-0.11,-0.07 -0.28,-0.28 -0.34,-0.18 -0.06,0.1 -0.25,-0.13 -0.34,-0.17l-3.85 -2.37c-0.89,-0.41 0.17,-0.45 -1.92,-0.5l0 8.88 1.15 0z"/>
   <path class="fil20" d="M0.11 213.86c0.67,-0 0.7,-0.4 1.21,-0.81l0 -2.41c2.42,0.96 4.03,-0.28 5.25,-2.43l-0.41 -0.81c-1.03,-1.1 -0.2,-0.2 -1.21,-0.81l-3.22 -2.02c-0.26,-0.12 0.07,-0.08 -0.81,-0.4 -0.03,0.09 -0.13,0.11 -0.15,0.25 -0.02,0.14 -0.12,0.2 -0.15,0.26 -0.95,2.06 -0.52,6.81 -0.51,9.17z"/>
   <path class="fil20" d="M0.51 79.09c1.21,-1.75 0.66,-0.82 0.9,-2.73 1.09,0.6 1.56,0.4 3.13,0.3 0.45,-0.91 0.48,-1.82 0.9,-2.82 0.38,-0.13 0.67,0.35 1.41,-0.4 -1.94,-0.64 -0.12,0.12 -0.94,-0.81 -0.55,-1.14 -0.75,-1.14 -2.29,-1.89l-2.7 -1.33c-0.28,1.05 0.15,0.45 -0.81,0.81l0.41 8.88z"/>
   <path class="fil40" d="M1.77 165.44c0.39,-1.84 -0.35,-3.23 -0.61,-4.85 -0.05,-1.07 0.15,-3 0.15,-4.65l3.28 0.39 0.02 -2.79c0.58,0.52 0.77,0.71 1.47,1.16 2.43,1.56 1.24,0.74 1.83,0.26l-3.22 -2.57c-0.08,-0.04 -0.19,-0.09 -0.28,-0.13l-1.59 -0.83c-0.67,-0.33 -0.25,-0.28 -1.16,-0.46 -0.5,-0.1 -1.04,-0.06 -1.56,-0.06l-0.05 7.72c0.06,2.32 -0.25,1.52 0.85,1.97l0 4.84 0.86 0z"/>
   <path class="fil17" d="M6.56 94.83l0 1.61c1.11,1.06 2.73,2.27 3.23,3.63l1.61 -0.4c1.72,0.69 1.14,0.64 2.42,1.38 0.88,-0.41 0.54,-0.55 1.41,-1.19l3.24 -1.64c0.07,-0.04 0.2,-0.11 0.29,-0.17l0.17 -3.26c-2.71,1.08 -4.59,1.88 -7.15,2.02 -0.95,2.38 0.34,2.19 -1.18,2.04l-4.04 -4.04z"/>
   <path class="fil38" d="M10.6 72.23c0.32,1.86 -0.59,0.84 0.81,1.21 0.7,1.74 -0.61,-0.31 2.23,1.8 0.77,0.57 -0.09,0.18 1.21,0.78l0.96 0.36c0.47,0.14 0.29,0.2 1.25,0.28 0.03,-0.09 0.16,-0.28 0.18,-0.22 0.03,0.07 0.15,-0.17 0.18,-0.2l0.93 -1.04c1.2,-1.75 -1.23,-0.68 1.63,-1.36 -0.21,-2 -0.64,-1.94 -0.39,-4.53l-0.52 1.3c-2.76,-0.01 -1.77,0.13 -5.45,1.82 -0.89,0.41 -0.06,-0.07 -0.94,0.68 -1.4,-0.73 -0.04,-0.48 -2.08,-0.88z"/>
   <path class="fil40" d="M0.11 187.23c1.58,-1.12 1.21,-1.43 1.22,-4.01 1.34,-0.54 2.09,-0.37 3.62,-0.44l0.05 -2.01c1.02,0.73 0.83,0.62 1.62,1.52 1.69,0.14 0.29,0.2 1.02,-0.72 -0.95,-1.33 -1.2,-1.19 -2.16,-1.75l-1.62 -1.21c-0.19,-0.12 -0.92,-0.51 -1.04,-0.57 -0.75,-0.36 0.03,-0.5 -2.72,-0.5l0 9.68z"/>
   <path class="fil41" d="M10.35 288.11l0.25 -0.06c0.78,0.57 0.7,0.54 1.5,0.95 3.74,-0.33 -1.17,-0.91 6.31,-1.8 0.18,-1.32 0.13,-2.22 0.8,-3.23 -0.05,-0.42 -0.11,-1.08 -0.22,-1.46 -0.25,-0.86 -0.08,-0.43 -0.47,-0.94l-0.41 2.43c-6.17,0.04 -2.86,-0.24 -7.17,0.85 0.07,4.97 0.22,1.79 -0.59,3.27z"/>
   <path class="fil40" d="M1.31 267.93l0 -4.33c3.61,1.68 3.64,-0.46 2.66,-2.93 -0.01,0.46 -0.72,0.18 0.59,0.86 1.3,0.67 1.64,0.02 1.74,-0.05 -0.08,-0.07 -0.21,-0.28 -0.25,-0.2 -0.04,0.07 -0.2,-0.15 -0.25,-0.2 -1.19,-1.06 -1.95,-2.02 -3.53,-2.58 -0.99,-0.35 -1.02,-0.24 -2.18,-0.24l0 9.68 1.21 0z"/>
   <path class="fil40" d="M1.22 106.53l0.1 -4.66c1.18,0.09 1.77,0.39 3.73,0.33 0,-0.52 -0.03,-0.8 -0.05,-1.29 -0.05,-1.16 0.4,-1.11 -0.57,-2.45 -1.03,-1.36 -2.54,-1.62 -4.34,-1.62l0 9.68 1.12 0z"/>
   <path class="fil24" d="M0.83 51.65l0.55 -3.08c2.61,0.7 4.92,0.16 2.87,-2.97 0.28,0.65 0.1,0.47 1.5,0.81 -0.34,-1.43 -0.99,-2.06 -2.13,-2.71 -1.63,-0.94 -1.87,-0.92 -3.52,-0.92l0.73 8.88z"/>
   <path class="fil38" d="M0.1 238.88l0 1.61 0.81 0.22c1.15,-1.31 0.26,-0.97 2.37,-1.36 1.22,-0.23 2.47,-0.4 4.09,-0.3l0.29 -0.65c0.83,-1.77 0.62,-1.06 1.45,-1.94 -0.58,-1.02 0,-0.1 -1.45,-1.1 -1.75,-1.21 -1.08,-1.64 -3.11,-2.13 0.11,0.16 0.22,0.4 0.29,0.51l0.58 0.7c-1.29,0.5 -0.64,0.87 -1.19,2.54 -1.95,0.08 -1.5,-0.06 -2.91,-0.41l0 3.92 -1.21 -1.61z"/>
   <path class="fil37" d="M21.23 70.42l0.08 3.16c3.51,-0.48 1.55,-2.02 5.83,-0.94 1.7,-2.06 3.59,-3.23 4.84,-5.08 -2.33,-0.72 -3.88,0.61 -5.51,1.6 -1.46,0.89 -3.17,1.94 -4.66,2.89l-0.59 -1.62z"/>
   <path class="fil24" d="M0.1 238.88l1.21 1.61 -0 -3.92c1.41,0.36 0.96,0.49 2.91,0.41 0.55,-1.67 -0.1,-2.04 1.19,-2.54l-0.58 -0.7c-0.07,-0.1 -0.17,-0.35 -0.29,-0.51 -0.58,-0.44 -0.23,-0.26 -0.68,-0.54l-2.2 -1.02c-0.51,-0.1 -1.04,-0.06 -1.56,-0.06l0 7.26z"/>
   <path class="fil42" d="M12.09 289c0.82,0.39 1.88,1.22 3.08,1.69l3 1.27c0.67,-0.85 -0.08,0.73 0.29,-0.77 0.08,-0.32 0.11,-0.66 0.17,-1.01 0.4,-2.47 0.72,-3.59 0.57,-6.22 -0.67,1.01 -0.62,1.91 -0.8,3.23 -7.48,0.89 -2.57,1.47 -6.31,1.8z"/>
   <path class="fil43" d="M12.21 181.18c0.32,1.86 -0.59,0.84 0.81,1.21 0.32,0.8 0.65,0.96 2.18,1.45 0.1,0.03 0.21,0.06 0.32,0.09l3.15 0.89c0.66,-1.67 0.01,-3.69 0.17,-5.58 -1.18,0.09 -2.19,0.5 -2.85,1.29l-0.45 0.79c-0.68,1.27 0.09,1.62 -1.39,0.65l-1.93 -0.79z"/>
  </g>
 </g>
</svg>
